<?xml version="1.0" standalone="no"?>
<!DOCTYPE svg PUBLIC "-//W3C//DTD SVG 20010904//EN"
 "http://www.w3.org/TR/2001/REC-SVG-20010904/DTD/svg10.dtd">
<svg version="1.0" xmlns="http://www.w3.org/2000/svg"
 width="512.000000pt" height="512.000000pt" viewBox="0 0 512.000000 512.000000"
 preserveAspectRatio="xMidYMid meet">

<g transform="translate(0.000000,512.000000) scale(0.100000,-0.100000)"
fill="#000000" stroke="none">
<path d="M2425 5114 c-300 -44 -503 -138 -703 -328 -40 -39 -80 -83 -88 -98
-18 -34 -9 -73 19 -93 41 -29 65 -19 156 67 287 272 669 369 1038 262 480
-139 783 -538 783 -1034 l0 -122 -27 6 c-16 4 -48 9 -73 13 -97 13 -162 103
-185 254 -14 91 -18 100 -64 152 -57 64 -115 71 -331 43 -257 -33 -555 -30
-859 10 -143 18 -198 7 -254 -55 -39 -43 -52 -79 -61 -165 -13 -124 -92 -227
-184 -240 -26 -3 -59 -9 -74 -12 l-28 -6 0 93 c0 146 18 264 55 377 19 57 35
114 35 127 0 50 -72 83 -113 53 -25 -19 -65 -118 -94 -232 -22 -88 -26 -128
-30 -316 -4 -206 -5 -217 -30 -263 -14 -28 -27 -72 -30 -105 -12 -138 99 -282
248 -322 l39 -11 0 -55 c0 -83 36 -247 76 -344 73 -174 224 -353 381 -450 l73
-45 0 -61 0 -60 -97 -67 -98 -67 -325 -96 c-178 -53 -352 -110 -384 -126 -34
-17 -88 -58 -122 -92 -106 -107 -110 -117 -240 -774 -78 -394 -115 -600 -115
-648 -1 -121 52 -209 155 -256 51 -23 55 -23 506 -26 337 -2 460 0 477 9 28
15 43 57 31 88 -17 46 -33 50 -190 51 l-148 0 0 368 0 369 -23 21 c-29 27 -67
28 -98 3 l-24 -19 -3 -371 -3 -371 -212 1 c-137 0 -224 4 -246 12 -51 18 -74
55 -74 119 1 79 219 1162 247 1223 58 127 117 160 478 266 150 44 278 81 284
83 7 3 39 -73 79 -187 81 -229 87 -242 128 -267 62 -38 84 -36 237 24 78 31
143 56 146 56 2 0 4 -144 4 -321 0 -186 4 -328 10 -338 5 -10 22 -24 39 -30
24 -10 34 -10 59 3 16 8 32 23 36 31 3 9 6 162 6 340 l0 323 133 -50 c192 -72
204 -75 259 -50 26 11 54 31 63 45 12 19 155 400 155 414 0 14 545 -143 619
-179 110 -53 162 -137 201 -324 31 -151 46 -177 101 -177 50 0 73 35 65 98
-12 97 -56 270 -84 325 -42 84 -136 174 -224 214 -40 19 -211 75 -380 124
l-307 90 -101 68 -100 68 1 60 0 61 86 55 c94 61 217 182 279 275 89 134 150
309 161 460 6 89 16 115 41 115 35 0 126 56 172 107 86 94 103 210 47 321 -26
52 -27 58 -27 239 0 195 -14 300 -60 443 -154 477 -611 810 -1130 825 -74 2
-148 1 -165 -1z m-301 -1024 c265 -32 593 -30 893 5 155 18 168 13 177 -62 18
-146 55 -226 146 -313 l70 -67 0 -234 c-1 -362 -16 -473 -89 -624 -156 -326
-513 -523 -857 -475 -316 45 -561 229 -680 511 -57 135 -64 193 -64 530 l0
302 60 54 c77 70 125 165 141 278 14 93 34 120 84 111 16 -3 70 -10 119 -16z
m-554 -610 c0 -98 -4 -150 -10 -150 -44 0 -116 71 -126 125 -9 51 29 123 81
152 22 13 43 23 48 23 4 0 7 -67 7 -150z m2094 77 c29 -39 29 -115 0 -154 -21
-28 -80 -73 -95 -73 -5 0 -9 68 -9 151 l0 150 42 -23 c23 -13 51 -36 62 -51z
m-1348 -1362 c130 -39 351 -39 494 0 30 8 56 15 58 15 1 0 2 -17 2 -37 0 -34
-19 -62 -161 -246 -144 -184 -163 -205 -175 -190 -6 10 -73 103 -148 208 -117
163 -136 195 -136 227 0 43 0 43 66 23z m-23 -378 c70 -97 127 -181 127 -185
0 -8 -248 -107 -254 -101 -7 8 -136 371 -136 383 1 14 123 97 131 88 3 -4 63
-87 132 -185z m748 142 l57 -38 -69 -192 c-38 -106 -71 -195 -74 -197 -5 -6
-276 91 -278 100 -4 14 287 377 297 371 6 -4 36 -24 67 -44z"/>
<path d="M4165 945 c-14 -13 -25 -30 -25 -37 0 -7 25 -137 55 -288 60 -301 66
-367 35 -417 -28 -46 -66 -53 -302 -53 l-208 0 0 364 c0 352 -1 364 -21 390
-15 19 -30 26 -54 26 -24 0 -39 -7 -54 -26 -20 -26 -21 -38 -21 -390 l0 -364
-709 0 c-701 0 -709 0 -735 -21 -36 -28 -36 -80 1 -109 l26 -20 1021 2 1021 3
50 23 c102 47 156 136 157 257 0 34 -25 184 -58 350 -48 241 -62 294 -80 312
-30 30 -69 29 -99 -2z"/>
</g>
</svg>
