<?xml version="1.0" standalone="no"?>
<!DOCTYPE svg PUBLIC "-//W3C//DTD SVG 20010904//EN"
 "http://www.w3.org/TR/2001/REC-SVG-20010904/DTD/svg10.dtd">
<svg version="1.0" xmlns="http://www.w3.org/2000/svg"
 width="512.000000pt" height="512.000000pt" viewBox="0 0 512.000000 512.000000"
 preserveAspectRatio="xMidYMid meet">

<g transform="translate(0.000000,512.000000) scale(0.100000,-0.100000)"
fill="#000000" stroke="none">
<path d="M3381 4940 c-346 -368 -792 -586 -1261 -616 -153 -10 -150 -6 -150
-226 0 -549 71 -1192 162 -1473 42 -130 144 -331 247 -486 234 -353 547 -637
946 -858 153 -86 172 -90 238 -60 325 150 694 439 922 721 171 212 346 523
399 711 84 291 135 751 152 1357 8 261 5 280 -45 299 -14 5 -66 12 -116 16
-200 14 -454 81 -646 172 -217 103 -369 213 -561 405 -110 110 -143 138 -165
138 -22 0 -47 -21 -122 -100z m374 -335 c196 -156 414 -273 650 -349 115 -37
287 -75 377 -82 42 -4 82 -10 89 -15 10 -6 10 -63 0 -291 -26 -593 -78 -1000
-158 -1223 -73 -203 -218 -442 -397 -654 l-71 -84 -5 174 c-5 169 -6 176 -37
241 -17 37 -50 87 -73 112 -51 56 -160 112 -233 121 l-52 7 35 71 c33 66 35
77 35 166 0 87 -3 102 -32 163 -44 93 -100 151 -191 196 -72 35 -81 37 -172
37 -91 0 -100 -2 -172 -37 -91 -45 -147 -103 -191 -196 -29 -61 -32 -76 -32
-163 0 -89 2 -100 35 -166 l35 -71 -52 -7 c-73 -9 -182 -65 -233 -121 -23 -25
-56 -75 -73 -112 -32 -66 -32 -69 -37 -256 l-5 -189 -58 62 c-189 204 -368
491 -445 712 -86 244 -161 893 -162 1386 0 140 -11 127 110 138 36 3 106 15
155 26 405 87 746 271 1030 556 l80 80 90 -88 c49 -49 122 -114 160 -144z
m-161 -1577 c55 -16 138 -99 154 -154 28 -94 8 -169 -63 -239 -101 -102 -229
-102 -330 0 -102 101 -102 229 0 330 70 71 145 90 239 63z m320 -640 c55 -16
138 -99 154 -154 8 -27 12 -118 12 -262 l0 -220 -37 -33 -38 -33 -3 237 -2
237 -80 0 -80 0 0 -299 0 -300 -87 -54 c-49 -29 -124 -73 -167 -97 l-80 -43
-70 36 c-39 20 -108 59 -153 87 l-83 51 0 310 0 309 -80 0 -80 0 0 -250 0
-251 -40 32 -40 32 0 235 c0 155 4 249 12 276 15 51 99 137 148 153 51 16 740
17 794 1z"/>
<path d="M3440 4431 c0 -45 -2 -50 -30 -61 -68 -28 -130 -129 -130 -210 0
-123 116 -240 239 -240 42 0 81 -38 81 -80 0 -41 -39 -80 -80 -80 -33 0 -80
38 -80 65 0 12 -15 15 -80 15 -89 0 -90 0 -68 -72 14 -48 76 -121 118 -138 28
-11 30 -16 30 -61 l0 -49 80 0 80 0 0 49 c0 45 2 50 30 61 68 28 130 129 130
210 0 123 -116 240 -239 240 -42 0 -81 38 -81 80 0 41 39 80 80 80 33 0 80
-38 80 -65 0 -12 15 -15 80 -15 89 0 90 0 68 72 -14 48 -76 121 -118 138 -28
11 -30 16 -30 61 l0 49 -80 0 -80 0 0 -49z"/>
<path d="M2560 3871 c0 -45 -2 -50 -30 -61 -68 -28 -130 -129 -130 -210 0
-123 116 -240 239 -240 42 0 81 -38 81 -80 0 -41 -39 -80 -80 -80 -33 0 -80
38 -80 65 0 12 -15 15 -80 15 -89 0 -90 0 -68 -72 14 -48 76 -121 118 -138 28
-11 30 -16 30 -61 l0 -49 80 0 80 0 0 49 c0 45 2 50 30 61 68 28 130 129 130
210 0 123 -116 240 -239 240 -42 0 -81 38 -81 80 0 41 39 80 80 80 33 0 80
-38 80 -65 0 -12 15 -15 80 -15 89 0 90 0 68 72 -14 48 -76 121 -118 138 -28
11 -30 16 -30 61 l0 49 -80 0 -80 0 0 -49z"/>
<path d="M4320 3871 c0 -45 -2 -50 -30 -61 -68 -28 -130 -129 -130 -210 0
-123 116 -240 239 -240 42 0 81 -38 81 -80 0 -41 -39 -80 -80 -80 -33 0 -80
38 -80 65 0 12 -15 15 -80 15 -89 0 -90 0 -68 -72 14 -48 76 -121 118 -138 28
-11 30 -16 30 -61 l0 -49 80 0 80 0 0 49 c0 45 2 50 30 61 68 28 130 129 130
210 0 123 -116 240 -239 240 -42 0 -81 38 -81 80 0 41 39 80 80 80 33 0 80
-38 80 -65 0 -12 15 -15 80 -15 89 0 90 0 68 72 -14 48 -76 121 -118 138 -28
11 -30 16 -30 61 l0 49 -80 0 -80 0 0 -49z"/>
<path d="M575 2280 c-17 -5 -44 -24 -61 -42 -35 -38 -341 -563 -361 -621 -18
-52 -1 -115 40 -154 30 -27 219 -141 260 -156 19 -7 68 8 79 26 5 8 17 5 42
-8 20 -11 36 -20 36 -21 0 0 -119 -207 -265 -460 -146 -252 -265 -469 -265
-481 0 -38 40 -70 195 -158 157 -90 179 -96 216 -57 9 9 132 217 273 461 141
245 258 447 260 449 2 2 18 -4 35 -13 27 -13 31 -21 31 -54 0 -23 7 -47 18
-58 22 -25 238 -148 275 -157 39 -9 103 10 137 42 15 15 104 158 196 317 232
403 232 408 4 545 -132 78 -172 89 -208 57 -18 -17 -30 -11 -291 139 l-271
156 0 39 c0 50 -11 61 -152 142 -120 69 -169 83 -223 67z m125 -196 c34 -20
60 -39 58 -43 -14 -34 -313 -541 -319 -541 -4 0 -35 16 -69 36 -40 23 -60 41
-56 50 5 12 243 427 288 502 11 17 24 32 28 32 5 0 36 -16 70 -36z m647 -466
c29 -16 56 -34 59 -39 3 -5 -48 -101 -112 -212 l-118 -204 -278 160 c-267 154
-278 161 -265 181 7 12 62 105 121 208 l108 186 216 -125 c120 -69 241 -139
269 -155z m323 -94 c34 -20 60 -39 58 -43 -14 -34 -313 -541 -319 -541 -4 0
-35 16 -69 36 -40 23 -60 41 -56 50 5 12 243 427 288 502 11 17 24 32 28 32 5
0 36 -16 70 -36z m-851 -340 c34 -20 61 -40 61 -45 0 -5 -106 -192 -236 -418
l-236 -409 -69 40 -69 40 32 57 c197 346 444 770 450 771 4 0 34 -16 67 -36z"/>
<path d="M1986 949 c-63 -15 -153 -68 -197 -116 -66 -71 -101 -158 -107 -264
l-5 -89 -94 0 c-86 0 -96 -2 -118 -25 -24 -23 -25 -28 -25 -175 0 -147 1 -152
25 -175 l24 -25 751 0 751 0 24 25 c24 23 25 28 25 175 0 147 -1 152 -25 175
-22 23 -32 25 -118 25 l-94 0 -5 89 c-10 162 -86 279 -226 349 l-76 37 -235 2
c-130 1 -253 -3 -275 -8z m488 -161 c26 -8 60 -31 91 -63 57 -56 75 -102 75
-189 l0 -56 -400 0 -400 0 0 56 c0 31 5 75 12 98 15 51 99 137 148 153 50 16
421 16 474 1z m406 -508 l0 -40 -640 0 -640 0 0 40 0 40 640 0 640 0 0 -40z"/>
</g>
</svg>
