<?xml version="1.0" standalone="no"?>
<!DOCTYPE svg PUBLIC "-//W3C//DTD SVG 20010904//EN"
 "http://www.w3.org/TR/2001/REC-SVG-20010904/DTD/svg10.dtd">
<svg version="1.0" xmlns="http://www.w3.org/2000/svg"
 width="512.000000pt" height="512.000000pt" viewBox="0 0 512.000000 512.000000"
 preserveAspectRatio="xMidYMid meet">

<g transform="translate(0.000000,512.000000) scale(0.100000,-0.100000)"
fill="#000000" stroke="none">
<path d="M1603 4932 c-73 -26 -127 -65 -168 -120 -64 -87 -65 -95 -65 -508 l0
-373 -587 -3 -588 -3 -55 -30 c-60 -33 -114 -96 -130 -153 -6 -23 -10 -236
-10 -578 0 -623 -10 -564 105 -629 l65 -36 2 -1072 3 -1072 22 -40 c25 -47 74
-95 123 -121 34 -18 109 -19 2240 -19 2131 0 2206 1 2240 19 49 26 98 74 123
121 l22 40 3 1072 2 1072 65 36 c115 65 105 6 105 630 0 595 0 594 -61 668
-17 21 -54 50 -83 65 l-51 27 -587 3 -587 3 -3 387 c-3 378 -3 388 -26 433
-36 74 -87 125 -160 161 l-67 33 -920 2 c-864 2 -923 1 -972 -15z m1884 -173
c74 -36 87 -65 91 -201 l4 -118 -86 0 -86 0 0 58 c-1 60 -10 81 -47 100 -16 9
-228 12 -803 12 -666 0 -785 -2 -809 -15 -35 -18 -41 -32 -41 -101 l0 -54 -86
0 -86 0 4 118 c4 135 17 164 90 201 43 21 48 21 927 21 876 0 885 0 928 -21z
m-247 -574 l0 -255 -680 0 -680 0 0 255 0 255 680 0 680 0 0 -255z m-1532 -87
l2 -168 -85 0 -85 0 0 170 0 171 83 -3 82 -3 3 -167z m1872 2 l0 -170 -85 0
-85 0 0 163 c0 90 3 167 7 170 3 4 42 7 85 7 l78 0 0 -170z m1341 -369 l24
-19 3 -509 2 -508 -268 -152 -268 -153 -72 0 -72 0 0 -85 0 -85 96 0 97 0 151
86 c83 48 154 88 159 91 4 2 7 -446 7 -997 l0 -1002 -29 -29 -29 -29 -2162 0
-2162 0 -29 29 -29 29 0 1002 c0 551 3 999 8 997 4 -3 75 -43 158 -91 l151
-86 97 0 96 0 0 85 0 85 -72 0 -72 0 -268 153 -268 152 0 503 0 503 25 24 24
25 2339 0 c2289 0 2340 0 2363 -19z"/>
<path d="M382 3573 c-34 -13 -42 -59 -42 -238 l0 -175 85 0 85 0 0 125 0 125
130 0 130 0 0 85 0 85 -187 -1 c-104 0 -194 -3 -201 -6z"/>
<path d="M4350 3495 l0 -85 130 0 130 0 0 -125 0 -125 85 0 85 0 0 175 c0 183
-8 224 -45 239 -9 3 -100 6 -201 6 l-184 0 0 -85z"/>
<path d="M2491 3318 c-54 -15 -118 -65 -147 -113 l-26 -45 -519 0 -519 0 0
-85 0 -85 95 0 c52 0 95 -2 95 -4 0 -3 -120 -210 -266 -460 l-265 -455 3 -223
3 -223 30 -53 c153 -277 694 -380 1062 -201 98 47 197 134 233 206 24 46 25
56 28 273 l3 225 -239 410 c-131 226 -251 431 -266 458 l-28 47 274 0 273 0
20 -36 c21 -40 100 -114 121 -114 12 0 14 -176 14 -1080 l0 -1080 -255 0 -255
0 0 -85 0 -85 600 0 600 0 0 85 0 85 -255 0 -255 0 0 1080 c0 904 2 1080 14
1080 21 0 100 74 121 114 l20 36 273 0 274 0 -28 -47 c-15 -27 -135 -232 -266
-457 l-238 -410 0 -211 c0 -265 4 -281 104 -381 121 -122 299 -189 526 -200
307 -16 593 103 695 288 l30 53 3 223 3 223 -265 455 c-146 250 -266 457 -266
460 0 2 43 4 95 4 l95 0 0 85 0 85 -519 0 -519 0 -26 45 c-58 98 -176 145
-285 113z m108 -173 c32 -16 41 -33 41 -78 0 -69 -91 -105 -137 -54 -38 41
-31 107 15 131 34 19 46 19 81 1z m-469 -1150 l0 -35 -510 0 -510 0 0 33 c0
30 93 197 457 815 l55 94 254 -436 c201 -345 254 -443 254 -471z m1629 460
c190 -324 251 -437 251 -462 l0 -33 -510 0 -510 0 0 35 c0 28 53 126 253 469
138 239 255 431 259 427 4 -3 120 -199 257 -436z m-1629 -720 c0 -68 -16 -102
-72 -150 -103 -88 -244 -129 -438 -129 -150 0 -221 14 -329 65 -128 59 -181
123 -181 218 l0 51 510 0 510 0 0 -55z m1880 4 c0 -95 -53 -159 -181 -218 -86
-40 -164 -60 -274 -67 -222 -16 -462 66 -542 185 -17 26 -23 48 -23 92 l0 59
510 0 510 0 0 -51z"/>
<path d="M940 3075 l0 -85 85 0 85 0 0 85 0 85 -85 0 -85 0 0 -85z"/>
<path d="M4010 3075 l0 -85 85 0 85 0 0 85 0 85 -85 0 -85 0 0 -85z"/>
<path d="M1620 595 l0 -85 85 0 85 0 0 85 0 85 -85 0 -85 0 0 -85z"/>
<path d="M3330 595 l0 -85 85 0 85 0 0 85 0 85 -85 0 -85 0 0 -85z"/>
</g>
</svg>
