<?xml version="1.0" standalone="no"?>
<!DOCTYPE svg PUBLIC "-//W3C//DTD SVG 20010904//EN"
 "http://www.w3.org/TR/2001/REC-SVG-20010904/DTD/svg10.dtd">
<svg version="1.0" xmlns="http://www.w3.org/2000/svg"
 width="512.000000pt" height="512.000000pt" viewBox="0 0 512.000000 512.000000"
 preserveAspectRatio="xMidYMid meet">

<g transform="translate(0.000000,512.000000) scale(0.100000,-0.100000)"
fill="#000000" stroke="none">
<path d="M1234 4626 c-27 -27 -34 -42 -34 -72 0 -22 6 -51 14 -66 l14 -27 -56
-16 c-181 -53 -335 -182 -423 -356 -20 -41 -35 -58 -54 -63 -47 -12 -112 -88
-131 -152 -21 -73 -15 -167 15 -225 l22 -41 -23 -47 c-27 -55 -36 -162 -18
-218 7 -21 23 -54 37 -75 l24 -36 -25 -39 c-36 -54 -59 -153 -51 -216 9 -77
57 -168 116 -221 66 -59 139 -86 233 -86 l73 0 12 -53 c14 -63 61 -166 99
-216 25 -34 27 -41 24 -121 l-3 -85 -192 -54 c-106 -30 -205 -60 -220 -68 -56
-28 -57 -93 -2 -129 24 -16 32 -14 205 35 99 29 187 54 195 57 13 5 15 -79 15
-710 l0 -716 -454 0 -455 0 -21 27 c-21 26 -21 31 -18 517 3 482 3 492 25 531
39 73 103 121 193 145 53 14 76 32 85 67 7 31 -16 70 -50 83 -29 11 -138 -19
-200 -55 -54 -32 -128 -110 -159 -168 -44 -85 -47 -122 -44 -648 l3 -496 30
-48 c22 -36 45 -57 84 -77 l53 -28 2388 0 2388 0 53 28 c39 20 62 41 84 77
l30 48 0 426 c0 370 -2 433 -17 477 -52 162 -158 293 -292 361 -48 25 -207 77
-618 203 -130 40 -179 60 -184 73 -6 20 -60 51 -74 42 -6 -4 -10 7 -10 23 0
24 10 35 55 67 65 45 154 138 190 199 l26 44 39 -16 c22 -10 39 -20 37 -24 -1
-4 -18 -17 -37 -30 -83 -56 -108 -178 -54 -265 41 -66 100 -96 180 -91 109 7
175 73 182 184 4 55 1 70 -22 108 -14 24 -42 54 -61 66 -36 22 -45 40 -22 40
24 0 96 58 123 99 16 24 30 67 37 109 7 39 20 79 29 89 9 10 30 45 45 78 23
50 27 74 27 140 0 95 -26 162 -93 237 -41 46 -41 47 -41 126 0 251 -103 501
-280 682 -200 205 -436 304 -715 302 -189 -1 -360 -48 -513 -142 -88 -55 -222
-175 -267 -240 l-28 -41 -36 34 c-20 19 -50 42 -68 51 -22 11 -43 37 -69 86
-75 144 -232 276 -383 324 -42 13 -76 28 -76 33 1 4 7 26 14 49 12 36 11 46
-4 78 -32 66 -29 66 -471 66 l-396 0 -34 -34z m366 -333 c0 -255 16 -259 -133
30 l-96 187 114 0 115 0 0 -217z m370 213 c0 -6 -209 -408 -215 -414 -3 -3 -5
90 -5 206 l0 212 110 0 c61 0 110 -2 110 -4z m-579 -361 c49 -94 89 -177 89
-185 0 -37 -13 -41 -89 -25 -40 8 -83 15 -97 15 -60 0 -88 -90 -40 -128 14
-10 58 -25 99 -32 l74 -12 6 -47 c3 -25 8 -53 12 -62 4 -12 -17 -24 -99 -57
l-105 -41 -243 48 c-232 47 -244 50 -270 80 -23 26 -28 41 -28 82 0 45 4 55
34 85 39 39 43 40 154 18 81 -17 84 -16 110 3 61 46 30 126 -54 139 -26 4 -44
12 -44 19 0 25 80 120 138 164 31 24 77 53 102 64 46 21 138 47 154 43 4 -1
48 -78 97 -171z m775 143 c74 -27 162 -87 213 -144 40 -46 77 -103 69 -108 -2
-2 -122 -26 -268 -55 -146 -29 -273 -54 -282 -57 -10 -3 -21 3 -28 16 -10 18
2 47 82 200 l93 180 35 -6 c19 -4 58 -15 86 -26z m1324 -246 l0 -168 -62 -61
-63 -61 -64 -1 c-81 -1 -149 -23 -209 -69 -54 -40 -44 -30 -139 -151 -41 -53
-77 -109 -83 -132 l-11 -39 -64 0 -65 0 0 55 c0 128 55 299 134 418 125 188
326 325 537 366 97 19 89 34 89 -157z m280 148 c347 -83 611 -394 637 -750 l6
-85 -72 3 c-63 3 -71 6 -71 23 0 39 -75 151 -169 253 -71 76 -161 116 -265
117 l-61 1 -67 66 -68 66 0 163 c0 190 -12 177 130 143z m-2045 -306 c89 -96
7 -318 -90 -242 -34 27 -55 75 -55 127 0 113 84 181 145 115z m892 -19 c18
-21 23 -38 23 -84 0 -100 12 -99 -280 -41 -140 28 -264 54 -274 59 -27 10 415
101 469 96 28 -3 47 -12 62 -30z m996 -163 l36 -37 -37 -57 c-20 -32 -40 -58
-44 -58 -3 0 -23 26 -42 57 l-36 57 37 38 c20 21 40 38 43 38 3 0 22 -17 43
-38z m-1357 -93 c172 -34 316 -64 321 -68 5 -3 8 -49 5 -104 -4 -95 -5 -98
-26 -92 -11 4 -58 9 -103 12 -80 5 -82 6 -94 36 -17 42 -65 94 -103 114 -17 9
-103 44 -191 79 -110 43 -161 68 -163 80 -3 13 1 15 20 11 12 -3 163 -33 334
-68z m1167 -119 c68 -109 100 -140 146 -140 46 0 73 26 143 137 l72 113 50 0
c93 -1 130 -27 240 -170 l58 -75 -4 -295 c-4 -245 -8 -304 -22 -350 -61 -190
-210 -336 -396 -385 -72 -19 -210 -19 -285 0 -195 51 -358 224 -401 424 -10
47 -14 144 -14 338 l0 272 59 78 c100 132 143 162 231 162 l55 1 68 -110z
m-2533 -1 c63 -12 118 -25 123 -29 4 -3 -4 -28 -19 -53 l-26 -47 -57 0 c-31 0
-81 -7 -111 -15 -54 -14 -55 -14 -77 11 -45 50 -21 173 31 161 11 -3 73 -16
136 -28z m689 9 c60 -29 136 -29 186 1 20 11 41 21 46 21 6 0 92 -32 192 -70
121 -47 190 -79 205 -96 22 -25 22 -27 22 -342 0 -346 -6 -394 -57 -481 -39
-66 -110 -130 -183 -165 l-65 -31 -255 0 -255 0 -60 29 c-75 37 -163 124 -198
196 -39 80 -47 162 -46 465 1 265 3 291 25 328 9 16 357 165 388 166 5 1 30
-9 55 -21z m-619 -483 l0 -195 -60 0 c-103 0 -174 53 -200 148 -13 50 -7 91
23 145 34 62 98 95 185 96 l52 1 0 -195z m1530 187 c0 -5 -9 -28 -21 -51 -12
-26 -23 -73 -26 -115 -5 -68 5 -113 42 -198 6 -16 1 -18 -49 -18 l-56 0 0 195
0 195 55 0 c30 0 55 -4 55 -8z m370 -108 l0 -116 -40 7 c-47 8 -134 -15 -173
-45 -33 -26 -33 -26 -46 11 -26 76 0 166 62 213 44 34 77 44 145 45 l52 1 0
-116z m1552 106 c82 -23 147 -126 134 -212 -11 -69 -17 -74 -62 -44 -47 30
-124 49 -170 40 l-34 -6 0 116 0 116 48 0 c26 0 64 -5 84 -10z m-1584 -371
c17 -6 33 -18 36 -27 9 -30 18 -132 13 -132 -4 0 -17 11 -31 25 -33 33 -72 32
-108 -2 l-27 -26 -12 29 c-17 44 -1 94 40 121 39 26 46 27 89 12z m1558 -4
c47 -19 70 -72 54 -121 -6 -19 -13 -34 -15 -34 -2 0 -15 11 -29 25 -32 32 -70
32 -103 -1 -14 -14 -27 -23 -30 -20 -3 2 -2 34 2 71 7 63 10 68 39 81 39 17
40 17 82 -1z m-1827 -181 c17 -48 75 -110 125 -136 38 -19 39 -22 21 -32 -11
-6 -36 -27 -56 -47 -118 -119 -30 -329 137 -329 29 0 65 5 81 11 38 14 92 67
109 106 35 81 3 193 -67 240 -22 14 -39 29 -39 32 0 4 15 13 33 21 17 7 34 15
37 17 3 1 15 -15 28 -37 32 -57 144 -173 203 -210 58 -38 67 -73 22 -84 -16
-4 -39 -20 -53 -36 -20 -23 -53 -38 -173 -74 -82 -25 -156 -46 -165 -46 -9 0
-138 35 -287 78 l-270 78 -3 84 c-3 79 -1 86 26 124 45 62 81 140 96 204 l12
57 80 6 c43 3 81 6 84 7 4 1 12 -14 19 -34z m259 -310 c24 -17 29 -53 10 -72
-27 -27 -88 -3 -88 34 0 15 35 54 48 54 4 0 18 -7 30 -16z m1569 -22 c8 -33
-7 -56 -40 -60 -50 -6 -71 70 -23 87 31 12 56 1 63 -27z m-3014 -115 c13 -5
17 -18 17 -59 0 -34 7 -64 19 -84 28 -46 227 -194 262 -194 28 0 197 118 247
172 26 29 42 77 42 129 0 34 2 36 53 53 28 9 58 20 65 23 10 4 12 -56 9 -304
l-3 -308 -29 -70 -30 -70 -3 -438 -3 -437 -384 0 -385 0 0 819 0 820 53 -23
c28 -13 60 -26 70 -29z m435 -43 c2 -17 -11 -33 -55 -66 -32 -25 -64 -48 -71
-52 -8 -5 -37 10 -77 41 -52 39 -65 53 -65 76 l0 28 133 -3 c126 -3 132 -4
135 -24z m1757 11 c66 0 139 4 163 8 l42 9 0 -43 c0 -36 6 -47 40 -80 22 -21
40 -45 40 -54 0 -30 -49 -112 -86 -145 -142 -124 -354 -89 -449 75 -37 64 -39
90 -10 103 33 15 65 69 65 110 0 33 0 33 38 25 20 -4 91 -8 157 -8z m-1165
-170 c69 -21 126 -38 128 -40 2 -2 -27 -13 -65 -25 -37 -12 -101 -40 -141 -61
-41 -21 -75 -39 -78 -39 -2 0 -4 48 -4 106 0 96 2 105 18 100 9 -2 73 -21 142
-41z m740 -29 c0 -37 74 -156 130 -210 234 -223 619 -123 719 187 7 20 14 37
15 37 2 0 17 -5 35 -11 28 -10 31 -15 31 -53 0 -127 -66 -215 -236 -315 -60
-35 -144 -88 -186 -118 l-78 -53 -77 54 c-43 29 -128 83 -188 119 -182 107
-229 167 -230 291 0 66 1 70 25 77 37 10 40 10 40 -5z m-216 -118 c9 -86 53
-177 118 -241 29 -29 105 -84 168 -122 153 -91 221 -137 281 -191 68 -60 91
-59 169 9 33 29 130 96 216 148 93 56 177 116 210 148 64 64 110 151 126 241
6 36 13 66 14 68 1 2 55 -13 119 -33 l118 -37 -614 -614 -614 -614 -533 0
-533 0 3 427 3 428 36 75 c39 82 103 154 176 196 36 22 482 170 519 173 6 1
14 -25 18 -61z m1803 -99 c52 -25 159 -121 169 -151 5 -17 -34 -61 -230 -257
-209 -209 -236 -240 -236 -268 0 -22 8 -38 26 -52 54 -42 62 -37 289 189 116
116 214 210 218 210 4 0 7 -170 7 -379 0 -368 -1 -379 -21 -405 l-20 -26 -392
0 -391 0 92 94 c100 101 109 122 71 170 -14 18 -30 26 -52 26 -28 0 -51 -19
-177 -145 l-145 -145 -245 0 -245 0 589 589 c575 575 589 589 618 580 17 -4
50 -18 75 -30z"/>
<path d="M3210 3300 c-17 -17 -20 -33 -20 -114 0 -90 1 -96 26 -115 31 -24 43
-26 78 -10 34 16 49 66 44 151 -3 59 -8 73 -27 89 -30 25 -76 24 -101 -1z"/>
<path d="M3825 3295 c-23 -22 -25 -32 -25 -110 0 -78 2 -88 25 -110 31 -32 69
-32 100 0 23 22 25 32 25 113 0 80 -2 91 -23 110 -31 29 -72 28 -102 -3z"/>
<path d="M3544 3299 c-48 -17 -63 -81 -29 -119 40 -45 125 -12 125 48 0 54
-48 89 -96 71z"/>
<path d="M3472 3033 c-87 -93 -95 -106 -87 -142 10 -45 157 -155 194 -146 70
18 84 87 26 137 l-34 31 34 42 c42 50 46 91 12 123 -42 40 -74 30 -145 -45z"/>
<path d="M3291 2664 c-12 -15 -21 -38 -21 -52 0 -34 60 -88 140 -126 58 -28
75 -31 160 -31 82 0 103 4 153 27 132 62 182 146 114 193 -33 23 -65 18 -116
-19 -105 -76 -211 -75 -309 3 -51 40 -92 41 -121 5z"/>
<path d="M1620 3370 c-11 -11 -20 -33 -20 -49 0 -71 80 -101 127 -47 28 33 29
56 2 90 -26 33 -79 36 -109 6z"/>
<path d="M1315 3295 c-23 -22 -25 -32 -25 -110 0 -78 2 -88 25 -110 31 -32 69
-32 100 0 23 22 25 32 25 110 0 78 -2 88 -25 110 -13 14 -36 25 -50 25 -14 0
-37 -11 -50 -25z"/>
<path d="M1931 3301 c-25 -25 -35 -78 -28 -149 5 -45 12 -62 32 -79 32 -28 55
-29 89 -2 25 19 26 25 26 115 0 81 -3 97 -20 114 -25 25 -74 26 -99 1z"/>
<path d="M1569 3074 c-95 -93 -116 -131 -100 -184 14 -46 39 -69 129 -115 80
-42 105 -41 138 10 30 45 12 74 -82 132 -18 10 -15 15 36 67 45 47 54 61 54
92 0 26 -7 42 -23 55 -42 34 -67 25 -152 -57z"/>
<path d="M1402 2673 c-39 -33 -38 -66 3 -112 111 -123 327 -145 478 -49 87 55
110 113 64 156 -33 31 -70 27 -122 -13 -98 -74 -205 -74 -304 1 -49 38 -88 43
-119 17z"/>
<path d="M1643 1660 c-31 -12 -43 -41 -43 -99 0 -63 23 -91 74 -91 75 0 106
112 47 171 -31 31 -42 33 -78 19z"/>
<path d="M1643 1260 c-31 -12 -43 -41 -43 -99 0 -63 23 -91 74 -91 84 0 108
153 29 189 -28 13 -30 13 -60 1z"/>
<path d="M1643 860 c-31 -12 -43 -41 -43 -99 0 -63 23 -91 74 -91 84 0 108
153 29 189 -28 13 -30 13 -60 1z"/>
</g>
</svg>
