<?xml version="1.0" standalone="no"?>
<!DOCTYPE svg PUBLIC "-//W3C//DTD SVG 20010904//EN"
 "http://www.w3.org/TR/2001/REC-SVG-20010904/DTD/svg10.dtd">
<svg version="1.0" xmlns="http://www.w3.org/2000/svg"
 width="512.000000pt" height="512.000000pt" viewBox="0 0 512.000000 512.000000"
 preserveAspectRatio="xMidYMid meet">

<g transform="translate(0.000000,512.000000) scale(0.100000,-0.100000)"
fill="#000000" stroke="none">
<path d="M4500 4809 c-391 -164 -469 -201 -594 -284 -98 -65 -104 -71 -112
-112 -4 -23 0 -36 18 -56 41 -47 65 -44 153 16 126 85 212 128 495 246 146 60
282 117 303 126 l37 15 0 -475 0 -476 -25 -24 c-29 -30 -74 -32 -106 -6 -23
18 -24 25 -29 193 -5 151 -8 178 -27 213 -57 107 -172 157 -287 123 -55 -16
-138 -99 -154 -154 -9 -30 -12 -189 -12 -593 l0 -552 -25 -24 c-29 -30 -74
-32 -106 -6 l-24 19 -5 294 c-5 278 -6 295 -27 334 -30 56 -93 109 -149 124
-52 15 -129 8 -173 -14 -74 -39 -131 -132 -131 -213 0 -23 -8 -42 -25 -58 -21
-22 -33 -25 -95 -25 -62 0 -74 3 -95 25 -23 22 -25 31 -25 126 l0 101 80 89
c44 49 80 96 80 105 0 43 -41 83 -84 84 -36 0 -29 7 -771 -765 -312 -324 -591
-614 -619 -642 l-51 -53 -44 22 c-61 30 -151 30 -214 -1 -119 -58 -168 -207
-107 -327 11 -21 17 -41 12 -45 -4 -3 -309 -274 -678 -601 -571 -506 -674
-602 -695 -644 -23 -47 -24 -60 -27 -277 -4 -281 3 -313 82 -392 73 -74 115
-85 317 -85 118 0 169 4 208 17 103 33 173 123 190 246 5 35 15 74 22 86 22
34 71 51 147 51 38 0 93 7 121 17 102 32 177 130 188 242 6 62 24 101 57 121
12 8 65 17 122 20 84 6 109 12 153 36 97 52 142 128 149 249 l4 80 121 122
120 122 41 -22 c61 -32 166 -31 226 3 114 64 160 206 103 324 l-18 38 55 46
c107 90 130 117 130 151 0 38 -38 81 -72 81 -29 0 -58 -19 -151 -97 l-74 -62
-62 63 -63 64 478 405 c264 222 488 414 498 426 58 65 -29 167 -100 117 -11
-8 -238 -199 -504 -425 l-484 -412 -65 65 -65 65 45 50 c24 28 267 282 539
565 l495 514 7 -39 c16 -89 87 -174 166 -197 56 -17 180 -15 235 4 84 29 157
132 157 223 0 42 38 81 80 81 19 0 40 -9 55 -25 24 -23 25 -28 25 -179 l0
-155 -515 -436 c-283 -240 -519 -444 -525 -455 -15 -29 -12 -55 11 -84 15 -20
29 -26 57 -26 34 0 75 32 502 390 l464 390 17 -50 c33 -103 126 -170 234 -170
90 0 199 86 225 178 5 21 10 148 10 295 l0 258 77 112 c42 62 79 116 83 120 4
5 18 -12 30 -38 67 -138 265 -168 376 -57 72 71 69 44 72 675 l2 567 -24 25
c-16 16 -36 25 -53 24 -15 0 -188 -68 -383 -150z m-45 -674 c14 -13 25 -29 25
-35 0 -11 -119 -222 -144 -255 -14 -18 -15 -7 -16 123 0 139 1 144 25 167 15
16 36 25 55 25 19 0 40 -9 55 -25z m-2647 -1749 c39 -21 579 -567 587 -594 10
-33 -13 -80 -47 -98 -55 -28 -76 -12 -381 294 -258 260 -287 292 -287 321 0
23 9 41 29 62 33 32 59 36 99 15z m57 -524 l179 -183 -139 -139 -140 -140 -5
-105 c-5 -102 -6 -106 -37 -137 -31 -30 -37 -32 -135 -38 -117 -8 -158 -22
-216 -75 -52 -46 -79 -102 -91 -189 -8 -57 -16 -75 -40 -100 -28 -28 -36 -30
-134 -36 -122 -8 -176 -29 -232 -92 -46 -50 -62 -89 -74 -174 -8 -55 -16 -73
-41 -98 l-30 -31 -170 0 -170 0 -32 33 -33 32 0 224 0 224 25 27 c14 15 234
213 490 440 256 227 548 487 650 578 102 91 187 165 190 164 3 -1 86 -84 185
-185z"/>
<path d="M1543 1657 c-88 -88 -103 -108 -103 -135 0 -44 38 -82 82 -82 27 0
47 15 135 103 88 88 103 108 103 135 0 22 -9 41 -25 57 -16 16 -35 25 -57 25
-27 0 -47 -15 -135 -103z"/>
<path d="M1143 1257 c-88 -88 -103 -108 -103 -135 0 -44 38 -82 82 -82 27 0
47 15 135 103 88 88 103 108 103 135 0 22 -9 41 -25 57 -16 16 -35 25 -57 25
-27 0 -47 -15 -135 -103z"/>
<path d="M3545 4215 c-16 -15 -25 -36 -25 -55 0 -19 9 -40 25 -55 15 -16 36
-25 55 -25 19 0 40 9 55 25 16 15 25 36 25 55 0 19 -9 40 -25 55 -15 16 -36
25 -55 25 -19 0 -40 -9 -55 -25z"/>
<path d="M4000 2467 c-49 -16 -133 -102 -148 -153 -8 -26 -12 -112 -12 -234 0
-231 6 -257 75 -325 73 -74 151 -92 248 -59 57 19 128 93 145 152 8 24 12 112
12 232 0 120 -4 208 -12 232 -17 59 -88 133 -145 152 -53 18 -112 19 -163 3z
m135 -172 c25 -24 25 -26 25 -215 0 -189 0 -191 -25 -215 -15 -16 -36 -25 -55
-25 -19 0 -40 9 -55 25 -25 24 -25 26 -25 215 0 189 0 191 25 215 15 16 36 25
55 25 19 0 40 -9 55 -25z"/>
<path d="M4000 707 c-49 -16 -133 -102 -148 -153 -7 -23 -12 -74 -12 -114 0
-103 16 -146 75 -205 102 -103 243 -101 338 5 52 57 67 103 67 200 0 97 -15
143 -67 200 -65 72 -158 97 -253 67z m135 -172 c22 -21 25 -33 25 -95 0 -62
-3 -74 -25 -95 -15 -16 -36 -25 -55 -25 -19 0 -40 9 -55 25 -22 21 -25 33 -25
95 0 62 3 74 25 95 15 16 36 25 55 25 19 0 40 -9 55 -25z"/>
</g>
</svg>
