<?xml version="1.0" standalone="no"?>
<!DOCTYPE svg PUBLIC "-//W3C//DTD SVG 20010904//EN"
 "http://www.w3.org/TR/2001/REC-SVG-20010904/DTD/svg10.dtd">
<svg version="1.0" xmlns="http://www.w3.org/2000/svg"
 width="512.000000pt" height="512.000000pt" viewBox="0 0 512.000000 512.000000"
 preserveAspectRatio="xMidYMid meet">

<g transform="translate(0.000000,512.000000) scale(0.100000,-0.100000)"
fill="#000000" stroke="none">
<path d="M1700 5059 c-274 -23 -514 -139 -710 -345 -116 -122 -194 -251 -245
-404 -52 -155 -55 -196 -55 -693 0 -427 2 -468 20 -545 61 -253 240 -471 476
-579 49 -22 54 -27 54 -57 0 -32 -2 -33 -57 -45 -188 -42 -430 -147 -447 -194
-14 -37 3 -79 38 -95 26 -13 35 -11 134 36 106 49 249 98 306 104 27 3 30 0
41 -47 30 -134 116 -257 231 -334 251 -168 586 -110 757 131 44 62 97 179 97
215 0 39 12 43 75 28 438 -102 816 -453 959 -890 55 -171 58 -196 63 -572 l5
-353 -201 0 c-198 0 -201 0 -201 21 0 12 43 242 96 513 63 325 93 502 89 523
-3 18 -17 46 -32 63 -54 64 46 60 -1398 60 -953 0 -1322 -3 -1338 -11 -41 -21
-77 -63 -87 -101 -9 -32 3 -108 85 -528 52 -270 95 -502 95 -515 l0 -25 -201
0 -201 0 5 348 c4 305 7 358 25 437 59 254 167 460 338 643 60 66 77 90 77
113 0 40 -33 72 -74 72 -28 0 -45 -12 -115 -86 -140 -146 -276 -377 -333 -561
-60 -193 -64 -232 -68 -661 -5 -389 -4 -401 15 -425 l20 -25 256 -3 256 -3 0
-60 c0 -72 19 -112 63 -136 30 -17 102 -18 1187 -18 1118 0 1156 1 1183 19 40
27 57 67 57 136 l0 60 250 0 251 0 25 25 26 26 -5 407 c-4 369 -6 416 -25 499
-56 242 -156 453 -303 639 -27 34 -49 65 -49 68 0 3 410 6 911 6 841 0 913 1
940 17 61 36 59 0 59 916 0 829 0 834 -21 861 -28 36 -80 36 -108 0 -21 -27
-21 -32 -21 -835 l0 -809 -966 0 -966 0 -68 49 c-37 28 -109 73 -159 102 l-91
51 0 221 0 221 39 60 c55 84 97 177 122 271 21 75 23 107 27 476 3 364 -1 488
-24 647 l-7 42 1047 0 1046 0 0 -110 c0 -104 1 -112 25 -135 31 -32 69 -32
100 0 l25 24 0 437 c0 478 0 482 -59 517 -27 16 -115 17 -1220 17 l-1191 0
-30 -27 c-34 -31 -49 -79 -50 -156 l0 -49 -51 46 c-158 142 -395 246 -600 261
-41 3 -85 7 -99 9 -14 1 -68 -1 -120 -5z m310 -168 c184 -43 350 -140 483
-280 107 -114 172 -225 220 -376 42 -134 49 -243 44 -681 -5 -446 -5 -452 -79
-601 -76 -156 -231 -292 -401 -350 l-82 -28 -400 0 -400 0 -76 27 c-209 74
-362 223 -442 430 l-32 83 0 505 c0 496 0 506 23 584 114 393 450 675 841 704
95 8 231 0 301 -17z m2960 -286 l0 -225 -1074 0 c-1016 0 -1075 1 -1080 18 -3
9 -26 53 -51 96 l-45 79 0 129 0 128 1125 0 1125 0 0 -225z m-2400 -2136 c0
-121 0 -121 -22 -115 -13 4 -62 17 -110 29 -87 21 -88 22 -88 53 0 27 6 33 61
60 34 16 83 43 108 61 25 18 47 32 49 32 1 1 2 -54 2 -120z m-372 -149 c-3
-95 -6 -112 -35 -171 -82 -165 -261 -261 -430 -230 -94 17 -170 59 -235 130
-74 80 -99 145 -106 276 l-4 100 407 0 407 0 -4 -105z m877 -892 c-10 -43
-165 -849 -165 -859 0 -5 -429 -9 -1113 -9 l-1112 0 -65 333 c-35 182 -74 383
-85 445 l-22 112 1284 0 1283 0 -5 -22z m-185 -1123 l0 -105 -1095 0 -1095 0
0 105 0 105 1095 0 1095 0 0 -105z"/>
<path d="M1344 4260 c-102 -21 -212 -110 -257 -208 -18 -38 -22 -66 -22 -142
0 -83 3 -102 27 -150 37 -75 100 -137 178 -174 l65 -31 433 -3 c369 -3 442 -1
494 13 119 30 205 108 249 223 16 45 20 74 17 137 -6 142 -77 247 -206 308
l-67 32 -435 2 c-239 1 -454 -2 -476 -7z m880 -150 c47 -10 79 -33 120 -83 24
-30 31 -49 34 -96 2 -32 -1 -75 -7 -94 -15 -46 -88 -112 -137 -126 -52 -15
-825 -15 -877 0 -49 13 -105 63 -128 114 -51 112 10 245 128 282 46 14 807 17
867 3z"/>
<path d="M1435 3960 c-25 -28 -23 -76 3 -103 28 -28 92 -29 121 -3 27 25 28
79 1 106 -28 28 -100 28 -125 0z"/>
<path d="M2030 3960 c-25 -25 -26 -71 -2 -100 13 -17 30 -23 61 -24 35 -1 47
4 67 27 29 34 30 56 3 91 -27 34 -98 37 -129 6z"/>
<path d="M1630 3414 c-263 -69 -397 -285 -294 -474 76 -139 248 -223 459 -223
164 0 289 42 388 133 181 166 125 413 -118 525 -38 18 -94 38 -123 44 -73 15
-246 13 -312 -5z m322 -155 c289 -94 231 -345 -89 -390 -141 -20 -310 31 -376
113 -68 84 -35 184 80 246 78 41 117 50 230 51 69 1 109 -4 155 -20z"/>
<path d="M1640 3138 c-44 -16 -52 -73 -16 -115 l24 -28 145 0 c140 0 146 1
171 24 31 29 34 69 8 101 -16 20 -26 22 -165 23 -82 1 -157 -1 -167 -5z"/>
<path d="M2976 4659 c-55 -43 -18 -129 56 -129 36 0 78 40 78 75 0 35 -42 75
-78 75 -16 0 -41 -9 -56 -21z"/>
<path d="M3285 4655 c-14 -13 -25 -36 -25 -50 0 -36 42 -75 80 -75 38 0 80 39
80 75 0 36 -42 75 -80 75 -19 0 -40 -9 -55 -25z"/>
<path d="M3595 4655 c-14 -13 -25 -36 -25 -50 0 -35 42 -75 78 -75 74 0 111
86 56 129 -36 28 -79 27 -109 -4z"/>
<path d="M1745 1241 c-114 -29 -188 -122 -188 -236 -1 -153 135 -267 282 -237
104 22 171 89 193 193 21 104 -40 224 -135 264 -43 18 -115 25 -152 16z m118
-182 c15 -16 27 -38 27 -50 0 -50 -49 -99 -100 -99 -11 0 -34 13 -52 29 -38
34 -44 87 -12 122 42 47 92 46 137 -2z"/>
<path d="M3759 4030 c-220 -34 -415 -199 -478 -405 -72 -232 -2 -419 175 -471
l54 -15 0 -100 c0 -95 1 -100 29 -131 l29 -33 271 -3 270 -3 38 35 38 34 3
100 4 100 61 22 c82 29 149 97 171 171 50 168 -13 388 -152 527 -134 133 -332
200 -513 172z m237 -171 c173 -58 294 -224 294 -400 0 -70 -19 -121 -52 -143
-13 -8 -48 -20 -78 -27 -39 -8 -64 -21 -87 -44 -33 -33 -33 -34 -33 -129 l0
-96 -60 0 -60 0 0 67 c0 55 -4 71 -22 90 -26 28 -67 30 -99 4 -19 -16 -24 -30
-27 -90 l-4 -71 -53 0 -53 0 -4 94 c-4 113 -20 143 -89 165 -115 36 -130 43
-144 72 -55 106 -7 288 106 402 122 122 301 163 465 106z"/>
<path d="M3654 3619 c-49 -24 -62 -138 -21 -183 32 -36 74 -39 107 -6 27 27
29 137 3 168 -22 26 -61 35 -89 21z"/>
<path d="M3960 3602 c-26 -27 -30 -38 -30 -86 0 -71 29 -110 81 -108 50 1 69
30 69 107 0 70 -17 100 -62 111 -22 5 -33 0 -58 -24z"/>
<path d="M3316 2798 c-21 -30 -20 -71 2 -96 9 -11 86 -48 170 -83 83 -35 152
-66 152 -69 0 -3 -69 -34 -152 -69 -84 -35 -161 -72 -170 -83 -39 -45 -8 -118
50 -118 16 0 130 42 255 94 l226 95 224 -95 c124 -52 239 -94 255 -94 21 0 37
8 51 26 50 64 20 95 -173 175 -86 35 -156 66 -156 69 0 3 70 34 156 69 192 80
224 111 173 175 -14 18 -30 26 -52 26 -18 0 -132 -42 -255 -94 l-224 -95 -225
95 c-239 100 -281 110 -307 72z"/>
</g>
</svg>
