<?xml version="1.0" standalone="no"?>
<!DOCTYPE svg PUBLIC "-//W3C//DTD SVG 20010904//EN"
 "http://www.w3.org/TR/2001/REC-SVG-20010904/DTD/svg10.dtd">
<svg version="1.0" xmlns="http://www.w3.org/2000/svg"
 width="512.000000pt" height="512.000000pt" viewBox="0 0 512.000000 512.000000"
 preserveAspectRatio="xMidYMid meet">

<g transform="translate(0.000000,512.000000) scale(0.100000,-0.100000)"
fill="#000000" stroke="none">
<path d="M3636 5109 c-165 -23 -319 -76 -466 -163 -162 -95 -151 -91 -497
-145 -177 -28 -341 -57 -363 -65 -92 -32 -167 -107 -202 -204 -14 -37 -17 -83
-18 -224 0 -196 3 -188 -65 -163 -78 28 -202 8 -257 -42 -16 -14 -22 -15 -36
-5 -174 127 -413 43 -467 -164 -8 -31 -16 -59 -18 -61 -2 -2 -30 -10 -61 -18
-207 -54 -291 -293 -164 -467 10 -14 9 -20 -5 -36 -50 -55 -70 -179 -42 -257
25 -68 33 -65 -162 -65 -142 -1 -188 -4 -225 -18 -97 -35 -172 -110 -204 -202
-8 -22 -37 -186 -65 -363 -54 -346 -50 -335 -145 -497 -217 -369 -230 -820
-36 -1202 169 -330 462 -562 822 -649 52 -12 105 -31 118 -40 37 -28 129 -59
176 -59 56 0 129 22 175 54 20 14 60 30 89 36 75 14 220 64 294 101 88 44 214
129 276 186 60 57 68 94 29 131 -40 38 -74 29 -160 -41 -94 -77 -200 -139
-304 -178 -43 -16 -81 -29 -84 -29 -4 0 -9 29 -11 64 -4 40 -15 82 -32 115
-23 47 -24 52 -8 58 246 87 416 239 521 465 59 128 75 202 75 353 0 134 -12
206 -53 316 -48 127 -164 283 -269 362 l-56 42 55 7 c30 3 111 6 181 7 l126 1
56 -88 c67 -105 138 -268 174 -400 22 -85 26 -117 26 -252 0 -128 -4 -171 -22
-243 -28 -113 -68 -211 -126 -312 -51 -88 -55 -112 -27 -146 21 -26 79 -32
105 -10 23 19 108 174 141 255 54 138 77 249 82 411 4 116 1 171 -11 240 -34
181 -122 401 -223 555 -42 64 -49 81 -45 115 2 22 -17 169 -42 328 -51 321
-65 366 -140 435 -89 82 -106 87 -328 90 -109 2 -198 7 -198 12 0 4 7 25 16
46 26 63 15 181 -23 242 l-30 48 23 34 c13 19 28 58 35 85 6 28 13 56 15 63 2
6 14 12 27 12 33 0 103 25 135 48 25 19 26 19 74 -11 40 -25 62 -31 126 -35
57 -3 87 0 116 12 21 9 42 16 46 16 5 0 10 -89 12 -197 3 -223 8 -240 90 -329
69 -75 114 -89 435 -140 159 -25 306 -44 328 -42 34 4 51 -3 115 -45 154 -101
374 -189 555 -223 120 -22 343 -15 466 15 465 111 820 459 937 918 16 62 38
123 50 138 28 35 52 116 52 171 0 47 -31 139 -59 176 -9 13 -28 66 -40 118
-56 232 -165 426 -336 595 -177 176 -386 287 -640 340 -96 20 -313 28 -409 14z
m316 -154 c396 -52 729 -314 877 -688 38 -96 39 -109 7 -101 -28 7 -141 -20
-174 -42 -24 -16 -42 -11 -42 10 0 30 -92 198 -148 267 -104 132 -238 225
-399 279 -490 163 -1012 -140 -1117 -651 -11 -53 -18 -200 -27 -529 -7 -250
-12 -456 -13 -457 -2 -2 -483 73 -531 83 -50 10 -101 50 -124 96 -21 44 -21
53 -21 641 0 396 4 605 11 624 12 34 55 80 90 98 14 7 171 36 350 64 178 28
345 58 371 67 26 8 75 34 110 56 249 161 501 220 780 183z m77 -420 c173 -59
324 -192 407 -359 59 -120 77 -210 71 -346 -19 -408 -357 -702 -773 -674 -95
6 -103 5 -123 -15 -28 -28 -27 -76 3 -105 18 -19 38 -25 101 -31 269 -25 529
74 716 272 89 94 143 186 192 325 6 16 11 15 58 -8 33 -17 75 -28 116 -32 64
-5 64 -5 58 -31 -14 -54 -67 -171 -113 -244 -250 -406 -739 -610 -1184 -494
-130 34 -294 105 -400 173 l-88 56 1 126 c1 70 4 151 7 181 l7 55 42 -56 c75
-99 242 -228 296 -228 38 0 67 33 67 74 0 40 -12 54 -84 100 -202 129 -330
390 -312 637 12 177 80 323 211 454 91 92 195 152 317 185 111 30 293 23 407
-15z m-2400 -553 c15 -12 25 -27 23 -38 -2 -11 -3 -48 -3 -84 0 -36 1 -73 3
-84 4 -23 -54 -56 -100 -56 -27 0 -43 10 -87 55 -53 55 -58 65 -56 117 1 33
45 86 86 104 38 18 101 11 134 -14z m390 1 c45 -34 63 -67 63 -116 0 -112
-107 -179 -208 -131 -19 9 -36 19 -38 23 -2 3 0 29 5 58 6 32 6 67 0 94 -11
49 -4 64 44 86 38 17 101 10 134 -14z m2879 7 c45 -28 76 -97 67 -151 -13 -79
-95 -138 -171 -126 -135 22 -172 202 -58 278 40 26 118 25 162 -1z m-3553
-336 c45 -43 55 -59 55 -86 0 -35 -31 -103 -46 -103 -5 0 -30 4 -55 8 -26 4
-65 3 -90 -2 -53 -12 -73 2 -91 61 -22 73 29 162 104 177 48 11 63 4 123 -55z
m-90 -378 c17 0 47 2 69 4 35 5 40 2 57 -30 23 -43 24 -91 3 -136 -38 -79
-152 -102 -218 -44 -60 53 -71 136 -25 194 17 21 25 24 52 18 18 -4 46 -7 62
-6z m643 -417 c46 -23 86 -74 96 -124 10 -48 85 -529 83 -531 -1 -1 -207 -6
-457 -13 -329 -9 -476 -16 -529 -27 -375 -77 -651 -381 -690 -760 -30 -290 90
-575 318 -756 69 -56 237 -148 267 -148 21 0 26 -18 10 -42 -22 -33 -49 -146
-42 -174 8 -32 -5 -31 -101 7 -319 126 -562 392 -656 720 -91 315 -38 644 151
937 22 35 48 84 56 110 9 26 39 193 67 371 28 179 57 336 64 350 17 34 64 77
95 90 16 6 252 10 624 10 591 1 600 1 644 -20z m-443 -859 c241 -75 420 -256
485 -491 101 -367 -105 -749 -467 -866 -103 -33 -258 -41 -363 -19 -112 23
-242 92 -330 173 -147 136 -219 291 -228 490 -6 142 13 231 76 356 82 164 242
299 417 352 106 32 123 34 240 30 67 -2 123 -11 170 -25z m-106 -1577 c42 -32
64 -87 56 -138 -3 -25 -13 -51 -22 -58 -8 -6 -27 -24 -41 -39 -38 -38 -89 -45
-146 -20 -59 26 -86 70 -86 137 0 125 138 193 239 118z"/>
<path d="M2502 3467 c-56 -60 6 -150 83 -121 8 4 23 20 31 36 39 75 -57 146
-114 85z"/>
<path d="M1652 2617 c-37 -39 -28 -88 20 -113 73 -38 146 58 88 116 -28 28
-81 26 -108 -3z"/>
</g>
</svg>
