<svg xmlns="http://www.w3.org/2000/svg" version="1.2" viewBox="89.7 50 320.6 320.7">
	<title>9396191</title>
	<style>
		tspan { white-space:pre }
		.s0 { fill: #ffffff }
		.s1 { fill: #ddbc66 }
		.s2 { fill: #041440 }
		.s3 { fill: #000b3f }
		.t4 { font-size: 40px;line-height: 40px;fill: #000000;font-family: "Myriad Pro" }
	</style>
	<g id="OBJECTS">
		<g id="&lt;Group&gt;">
			<path id="&lt;Path&gt;" fill-rule="evenodd" class="s0" d="m250 365.6c85.5 0 155.2-69.8 155.2-155.3 0-85.5-69.7-155.2-155.2-155.2-85.5 0-155.2 69.7-155.2 155.2 0 85.5 69.7 155.3 155.2 155.3z"/>
			<path id="&lt;Path&gt;" fill-rule="evenodd" class="s1" d="m250 360c82.4 0 149.7-67.2 149.7-149.7 0-82.4-67.3-149.7-149.7-149.7-82.4 0-149.7 67.3-149.7 149.7 0 82.5 67.3 149.7 149.7 149.7z"/>
			<path id="&lt;Compound Path&gt;" fill-rule="evenodd" class="s2" d="m250 50c44.3 0 84.4 17.9 113.4 47 29 29 46.9 69.1 46.9 113.3 0 44.3-17.9 84.4-46.9 113.4-29 29-69.1 47-113.4 47-44.3 0-84.4-18-113.4-47-29-29-46.9-69.1-46.9-113.4 0-44.2 17.9-84.3 46.9-113.3 29-29.1 69.1-47 113.4-47zm108.9 51.5c-27.9-27.9-66.4-45.1-108.9-45.1-42.5 0-81 17.2-108.9 45.1-27.8 27.8-45.1 66.3-45.1 108.8 0 42.6 17.3 81 45.1 108.9 27.9 27.9 66.4 45.1 108.9 45.1 42.5 0 81-17.2 108.9-45.1 27.8-27.9 45.1-66.3 45.1-108.9 0-42.5-17.3-81-45.1-108.8z"/>
			<path id="&lt;Path&gt;" fill-rule="evenodd" class="s0" d="m250 319.6c60.2 0 109.3-49.1 109.3-109.3 0-60.2-49.1-109.2-109.3-109.2-60.2 0-109.3 49-109.3 109.2 0 60.2 49.1 109.3 109.3 109.3z"/>
			<path id="&lt;Compound Path&gt;" fill-rule="evenodd" class="s2" d="m250 97.9c31 0 59.1 12.6 79.5 33 20.3 20.3 32.9 48.4 32.9 79.4 0 31.1-12.6 59.2-32.9 79.5-20.4 20.4-48.5 32.9-79.5 32.9-31 0-59.1-12.5-79.5-32.9-20.3-20.3-32.9-48.4-32.9-79.5 0-31 12.6-59.1 32.9-79.4 20.4-20.4 48.5-33 79.5-33zm75.1 37.4c-19.2-19.2-45.8-31.1-75.1-31.1-29.3 0-55.9 11.9-75.1 31.1-19.2 19.2-31.1 45.7-31.1 75 0 29.4 11.9 55.9 31.1 75.1 19.2 19.2 45.8 31.1 75.1 31.1 29.3 0 55.9-11.9 75.1-31.1 19.2-19.2 31.1-45.7 31.1-75.1 0-29.3-11.9-55.8-31.1-75z"/>
			<path id="&lt;Compound Path&gt;" fill-rule="evenodd" class="s1" d="m249.5 110.3c0-0.3 0.2-0.5 0.5-0.5 0.3 0 0.5 0.2 0.5 0.5v30.6l12-30c0.1-0.2 0.4-0.3 0.6-0.2 0.3 0.1 0.4 0.4 0.3 0.6l-11.9 29.7 24-27.6c0.2-0.2 0.5-0.2 0.7-0.1 0.2 0.2 0.2 0.5 0.1 0.7l-23.6 27 35.2-23.5c0.2-0.2 0.5-0.1 0.7 0.1 0.1 0.2 0.1 0.5-0.2 0.6l-34.5 23.1 46-18.1c0.2-0.1 0.5 0.1 0.6 0.3 0.1 0.3-0.1 0.5-0.3 0.6l-45 17.7 55.5-11.4c0.3 0 0.5 0.1 0.6 0.4 0 0.2-0.1 0.5-0.4 0.5l-54.6 11.3 64.4-3.5c0.3 0 0.5 0.2 0.5 0.5 0 0.2-0.2 0.4-0.4 0.5l-63.5 3.3 72.1 5.5c0.2 0 0.4 0.2 0.4 0.5 0 0.2-0.3 0.4-0.5 0.4l-71.4-5.4 78.8 15.4c0.3 0.1 0.5 0.3 0.4 0.6 0 0.3-0.3 0.4-0.5 0.4l-78-15.3 83.9 26c0.3 0.1 0.4 0.3 0.4 0.6-0.1 0.2-0.4 0.4-0.6 0.3l-83.6-25.9 88.1 37.5c0.3 0.1 0.4 0.4 0.3 0.6-0.1 0.3-0.4 0.4-0.6 0.3l-87.6-37.2 90.5 49.1c0.2 0.1 0.3 0.4 0.2 0.6-0.1 0.2-0.4 0.3-0.6 0.2l-90.3-49 91.6 61.3c0.2 0.2 0.3 0.5 0.2 0.7-0.2 0.2-0.5 0.3-0.7 0.1l-91.2-61 90.9 73.2c0.2 0.2 0.3 0.5 0.1 0.7-0.2 0.2-0.5 0.2-0.7 0.1l-90.8-73.2 88.9 85.4c0.2 0.2 0.2 0.5 0 0.7-0.2 0.2-0.5 0.2-0.7 0l-88.5-85.1 85 96.7c0.2 0.2 0.2 0.5 0 0.7-0.2 0.2-0.5 0.1-0.7-0.1l-85-96.7 79.9 108c0.2 0.2 0.1 0.5-0.1 0.7-0.2 0.1-0.5 0.1-0.6-0.1l-79.8-107.7 73.4 117.9c0.1 0.2 0 0.5-0.2 0.7-0.2 0.1-0.5 0-0.6-0.2l-73.4-118 65.5 127.5c0.1 0.2 0 0.5-0.2 0.6-0.3 0.1-0.5 0-0.7-0.2l-65.3-127.2 56.4 135.4c0.1 0.2 0 0.5-0.2 0.6-0.3 0.1-0.5 0-0.6-0.3l-56.5-135.4 46.4 142.5c0.1 0.2-0.1 0.5-0.3 0.5-0.3 0.1-0.5 0-0.6-0.3l-46.3-142.2 35.6 147.7c0 0.3-0.1 0.5-0.4 0.6-0.2 0.1-0.5-0.1-0.6-0.3l-35.6-147.9 24.1 151.9c0 0.3-0.2 0.5-0.4 0.6-0.3 0-0.5-0.2-0.6-0.4l-24-151.7 12.2 154.1c0.1 0.3-0.1 0.5-0.4 0.5-0.2 0-0.5-0.2-0.5-0.4l-12.2-154.3v155.1c0 0.3-0.2 0.5-0.5 0.5-0.3 0-0.5-0.2-0.5-0.5v-154.9l-12 154.1c0 0.3-0.2 0.5-0.5 0.4-0.2 0-0.4-0.2-0.4-0.5l12-154.3-24 151.9c-0.1 0.2-0.3 0.4-0.6 0.4-0.2-0.1-0.4-0.3-0.4-0.6l24.1-151.7-35.4 147.7c-0.1 0.3-0.3 0.4-0.6 0.4-0.2-0.1-0.4-0.3-0.3-0.6l35.4-148-46.4 142.4c-0.1 0.3-0.3 0.4-0.6 0.3-0.2 0-0.4-0.3-0.3-0.5l46.4-142.3-56.3 135.4c-0.1 0.2-0.4 0.3-0.6 0.2-0.2-0.1-0.4-0.3-0.3-0.6l56.4-135.7-65.4 127.4c-0.2 0.2-0.4 0.3-0.7 0.2-0.2-0.1-0.3-0.4-0.2-0.6l65.4-127.3-73.1 118c-0.2 0.2-0.4 0.3-0.7 0.1-0.2-0.1-0.3-0.4-0.1-0.6l73.3-118.3-79.9 107.9c-0.1 0.2-0.4 0.2-0.6 0.1-0.2-0.2-0.3-0.5-0.1-0.7l79.8-107.8-84.8 96.7c-0.2 0.2-0.5 0.3-0.7 0.1-0.2-0.2-0.2-0.5-0.1-0.7l85.2-97.1-88.7 85.3c-0.2 0.2-0.5 0.2-0.7 0-0.2-0.2-0.2-0.5 0-0.7l88.8-85.3-90.7 73.3c-0.2 0.1-0.5 0.1-0.7-0.1-0.1-0.2-0.1-0.5 0.1-0.7l91-73.5-91.3 61.1c-0.2 0.2-0.5 0.1-0.7-0.1-0.1-0.2 0-0.5 0.2-0.7l91.5-61.2-90.2 49.1c-0.2 0.1-0.5 0-0.6-0.2-0.2-0.2-0.1-0.5 0.2-0.6l90.6-49.4-87.7 37.3c-0.2 0.1-0.5 0-0.6-0.3-0.1-0.2 0-0.5 0.3-0.6l88-37.4-83.6 26c-0.2 0.1-0.5-0.1-0.5-0.3-0.1-0.3 0-0.5 0.3-0.6l84.2-26.2-78.2 15.3c-0.2 0-0.5-0.1-0.5-0.4-0.1-0.3 0.1-0.5 0.4-0.6l78.6-15.3-71.3 5.5c-0.3 0-0.5-0.2-0.5-0.4 0-0.3 0.1-0.5 0.4-0.6l72.3-5.6-63.6-3.3c-0.2-0.1-0.4-0.3-0.4-0.5 0-0.3 0.2-0.5 0.5-0.5l64.3 3.4-54.7-11c-0.3-0.1-0.4-0.3-0.4-0.6 0.1-0.2 0.3-0.4 0.6-0.3l55.7 11.2-45-17.7c-0.2-0.1-0.4-0.3-0.3-0.6 0.1-0.2 0.4-0.4 0.6-0.3l45.9 18.1-34.7-23c-0.2-0.1-0.2-0.4-0.1-0.6 0.2-0.2 0.4-0.3 0.7-0.2l35.5 23.5-23.7-27c-0.1-0.2-0.1-0.5 0.1-0.7 0.2-0.1 0.5-0.1 0.7 0.1l24 27.5-12.1-29.6c-0.1-0.2 0-0.5 0.2-0.6 0.3-0.1 0.6 0 0.7 0.3l12.2 30zm0.7 32.2q-0.1 0-0.2 0-0.1 0-0.2 0-0.1 0-0.1 0-0.2 0.1-0.4 0v0.1q-0.2 0.1-0.4 0.1-0.2 0.2-0.4 0.1-0.2 0.2-0.4 0.3-0.1 0.2-0.4 0.2 0 0.3-0.3 0.3 0 0.3-0.3 0.4 0 0.3-0.2 0.4 0 0.2-0.1 0.4 0 0.3-0.2 0.4 0.1 0.3 0 0.5 0.1 0.2 0 0.4 0.1 0.3 0 0.5 0.2 0.2 0.1 0.4h0.1q0.1 0.2 0.1 0.4 0 0 0.1 0.1 0.1 0.1 0.1 0.3 0.1 0 0.1 0.1 0.2 0.1 0.2 0.3 0.1 0 0.1 0 0.2 0.1 0.2 0.3 0.1 0 0.1 0 0.2 0.1 0.3 0.3 0.1 0 0.1 0 0.2 0 0.3 0.2 0.1 0 0.1 0 0.2 0 0.3 0.2 0.1-0.1 0.2 0 0.1 0 0.2 0.1 0.1-0.1 0.2-0.1 0.2 0.1 0.3 0.1 0.1 0 0.2 0 0.1 0 0.2 0 0.1 0 0.3-0.1 0.1 0 0.2 0.1 0.1-0.1 0.2-0.1 0.1-0.1 0.2 0 0.1-0.2 0.3-0.2 0 0 0.1 0 0.1-0.2 0.3-0.2 0 0 0.1 0 0.1-0.2 0.3-0.3 0 0 0.1 0 0-0.2 0.2-0.3 0 0 0.1 0 0-0.2 0.2-0.4 0 0 0.1 0 0-0.2 0.1-0.3 0.1-0.1 0.1-0.1 0-0.2 0.1-0.4 0-0.2 0.2-0.4-0.1-0.3 0-0.5-0.1-0.2 0-0.4-0.1-0.2 0-0.5-0.2-0.1-0.1-0.4-0.2-0.2-0.2-0.4-0.2-0.1-0.2-0.4-0.3-0.1-0.3-0.4-0.3 0-0.3-0.3-0.3 0-0.4-0.2-0.2-0.1-0.4-0.3-0.2 0.1-0.4-0.1-0.2 0-0.4-0.1v-0.1q-0.2 0.1-0.4 0 0 0-0.1 0z"/>
			<g id="&lt;Group&gt;">
				<path id="&lt;Path&gt;" fill-rule="evenodd" class="s3" d="m250 70.6l2 6.3h6.6l-5.3 3.9 2 6.2-5.3-3.9-5.3 3.9 2-6.2-5.3-3.9h6.6z"/>
				<g id="&lt;Group&gt;">
					<path id="&lt;Path&gt;" fill-rule="evenodd" class="s3" d="m229.6 76.1l1.4 4.3 4.4-0.1-3.6 2.6 1.4 4.3-3.6-2.7-3.6 2.7 1.4-4.3-3.6-2.6 4.4 0.1z"/>
					<path id="&lt;Path&gt;" fill-rule="evenodd" class="s3" d="m270.4 76.1l1.4 4.3 4.4-0.1-3.6 2.6 1.4 4.3-3.6-2.7-3.6 2.7 1.4-4.3-3.6-2.6 4.4 0.1z"/>
				</g>
			</g>
			<path id="&lt;Path&gt;" fill-rule="evenodd" class="s0" d="m237.4 340q-6.2-0.6-12.2-1.8c-6.2-4-6.8-14.1-21.8-18.4 2.9 3 4.4 7.7 6.7 11.2 3.1 4.6 6.6 4 12.3 6.7q-6.8-1.5-13.3-3.6c-5.5-5.2-6.2-15.3-20.1-21.2 2.7 3.5 3.6 8 5.7 11.9 2.6 4.8 6.2 5.2 11.3 8.2q-6.2-2.2-12.1-5c-5.1-5.7-3.8-16-17.5-24.1 2.3 3.8 2.8 8.9 4.3 12.9 2.1 5.4 5.7 5.8 10.6 9.9q-6.5-3.3-12.6-7.3c-4.1-6.4-1.5-16.5-13.6-26.8 1.6 4.1 1.1 8.9 2 13.2 1.2 5.8 5.1 7 9.6 12.2q-5.8-3.9-11.1-8.4c-3.6-6.9 0.1-16.9-11-28.5 1.2 4.3 0.5 9.4 1 13.8 0.7 5.9 4.2 7.3 8 12.9q-5.2-4.6-9.9-9.8-0.2-0.2-0.4-0.4c-2.6-7.4 2.2-16.6-7.3-29.6 0.6 4.4-0.6 9.7-0.6 14.1-0.1 5.8 3 7.5 6 13.3q-4.6-5.4-8.7-11.4c-1.5-7.4 4.5-15.4-3.1-29.2 0.1 4.4-2 8.9-2.7 13.2-0.8 5.6 1.9 7.7 4.2 13.6q-3.8-5.7-6.9-11.9c-0.5-7.4 6.4-14.5 0.5-29-0.5 4.3-3.1 8.5-4.3 12.6-1.5 5.3 0.9 7.8 2.4 13.7q-3-6.3-5.3-12.9c0.5-7.2 8.4-13.2 4.6-27.9-1.1 4.1-4.3 7.8-6 11.6-2.3 4.9-0.2 7.6 0.4 13.5q-2.1-6.4-3.5-13.1c1.3-7.3 9.8-12.4 7.7-27.9-1.5 4-5.1 7.4-7.3 11.1-2.7 4.7-1 7.7-1.1 13.8q-1.3-6.7-1.9-13.7c2.4-7.1 11.6-11 11.7-26.7-2.1 3.8-6.1 6.7-8.8 10-3.5 4.4-2.1 7.6-3.1 13.8q-0.2-4.1-0.2-8.3 0-3 0.1-5.9c3.3-6.7 12.8-9.6 14.9-25.4-2.5 3.6-6.6 5.7-9.6 8.7-4 3.9-3.4 7.6-5.1 13.6q0.4-6.5 1.5-12.7c3.9-6.9 14.1-8.2 18.4-24.1-3 3.2-7.2 4.8-10.7 7.5-4.7 3.6-4.3 7.6-7.3 14q1.4-7.5 3.7-14.8c4.8-5.6 13.9-5 20.3-19.6-3.5 2.7-6.5 2.8-10.4 4.9-5.2 2.8-5.4 6.6-9.1 12.2q2.3-6.8 5.2-13.2c5.5-4.8 14.2-3 22.4-16.6-4.7 2.8-8.6 1.4-13.1 4.6-3.2 2.3-4.7 5.7-8.2 9.7q3.1-6.4 6.8-12.3c5.9-4.2 14.3-1.7 22.8-13.6-4.9 2.4-8.3 0.3-13 3-3.1 1.9-4.7 4.5-8 7.8q0.3-0.5 0.7-1 3.2-4.8 6.9-9.3c6-3.1 14.3 0 23.5-10-4.9 1.6-8.7-0.7-13.4 1.4-3 1.3-4.8 3.5-8.1 6.2q4-4.7 8.4-8.9c6.2-2.3 14 1.7 23.8-6.8-4.8 1-8.5-1.7-13.2-0.3-3 0.9-4.9 2.7-8.3 4.9q4.3-4 9-7.6c6.3-1.5 13.5 3.5 24.3-4.1-4.9 0.5-8.2-2.6-13.1-1.8-3 0.6-5.1 2.2-8.5 3.9q4.5-3.3 9.4-6.2c6-0.8 12.4 4.5 23-1.5-4.6-0.1-7.6-3.2-12.2-2.8-2.8 0.2-4.7 1.3-7.7 2.4q4.7-2.6 9.6-4.9c3.7-0.6 7.9-0.5 11-1 4.8-0.7 6.5-5.6 10.5-6.8-11.8-1.8-15.3 0.1-23.5 7.2q-2.5 1.3-5 2.6c4.5-3.9 3.6-6.5 7.7-14.2-14 6.2-11.7 13-14.8 18.2q-2.4 1.5-4.8 3.1c4.1-4.4 3-7.1 6.5-15.5-14.2 8.1-11.1 14.9-13.8 20.7q-2.3 1.8-4.5 3.7c3.6-4.9 2.5-7.7 5-16.4-13.2 9.6-9.7 16.5-11.8 22.6q-2.1 2.1-4.1 4.2c3.1-5.4 1.7-8.2 3.4-17.4-12.6 11.6-8.2 18.1-9.7 24.7q-1.9 2.3-3.6 4.6c2.6-6.1 0.8-8.8 1.5-18.7-11.9 13.8-6.5 20.1-7.3 27.3q-1.1 1.7-2.1 3.5c1.2-5.3-0.7-8.2-1-17-10.6 14.8-4.6 20.8-4.7 28q-0.9 2.1-1.8 4.3c0.5-5.5-1.8-8.1-3.2-16.8-8.6 16-1.9 21.2-1.1 28.3q-0.7 2.4-1.4 4.9c-0.2-5.6-2.7-7.9-5.3-16.5-6 17.1 0.8 21.5 2.8 28.3q-0.5 2.9-0.9 5.8c-0.8-6.4-3.7-8-7.6-16.8-3.9 18.2 4 21.4 6.6 28.3q-0.1 2.7-0.1 5.4 0 0.1 0 0.1c-1.6-5.8-4.7-7.1-9.6-14.9-1.5 18 6.6 20.2 10.1 26.4q0.3 3.2 0.7 6.2c-2.4-6-5.7-6.6-11.8-13.9 1 18 9.4 19 13.7 24.7q0.6 2.7 1.3 5.4c-3-5.4-6.4-6-13.1-12.2 3 17.3 11.4 17.7 16.4 22.8q1.1 3 2.4 6.1c-4.1-5.5-7.8-5.3-15.6-10.8 5.4 17.1 14.3 16.1 20.1 20.5q1.2 2.4 2.6 4.8c-4.6-4.6-8.3-4.1-16.5-8.5 7.5 16.4 16.2 14.3 22.4 18q1.6 2.4 3.4 4.7c-5.1-3.9-8.7-2.9-17.3-6.2 9.6 15.5 17.9 12.2 24.6 15.1q0.1 0.1 0.3 0.3 2.1 2.3 4.3 4.6c-6.3-3.7-9.5-1.7-19-3.9 12.1 13.9 19.7 9.2 26.6 10.9q1.8 1.5 3.7 3c-5.4-1.9-8.7 0-17.5-1.1 12.7 12.2 20.1 7 27.2 8.2q3.4 2.2 7 4.3c-8.1-2.5-10.1 0.6-19.9 1 14.5 10.1 21.1 3.5 28.3 3.3q3.2 1.6 6.6 3c-7.2-1.1-9.1 2.4-18.9 4.1 17.2 7.7 21.4 0.1 28.5-0.6q2.7 0.8 5.3 1.5c-6.6 0.2-8.3 3.8-17.6 6.6 17.2 5 20.8-2.3 27.4-4.3q6.2 1.2 12.5 1.8c0.4 0 0.7-0.2 0.8-0.6 0-0.4-0.3-0.7-0.6-0.7z"/>
			<path id="&lt;Path&gt;" fill-rule="evenodd" class="s0" d="m390.1 232.1c-6.7 6.2-10.1 6.8-13.1 12.2q0.7-2.7 1.3-5.4c4.3-5.7 12.7-6.7 13.7-24.7-6.1 7.3-9.4 7.9-11.8 13.9q0.4-3 0.7-6.2c3.5-6.2 11.6-8.4 10.1-26.4-4.9 7.8-8 9.1-9.6 14.9q0 0 0-0.1 0-2.7-0.1-5.4c2.6-6.9 10.5-10.1 6.6-28.3-3.9 8.8-6.8 10.4-7.6 16.8q-0.4-2.9-0.9-5.8c2-6.8 8.8-11.2 2.8-28.3-2.6 8.6-5.1 10.9-5.3 16.5q-0.7-2.5-1.4-4.9c0.8-7.1 7.5-12.3-1.1-28.3-1.4 8.7-3.7 11.3-3.2 16.8q-0.9-2.2-1.8-4.3c-0.1-7.2 5.9-13.2-4.7-28-0.3 8.8-2.2 11.7-1 17q-1-1.8-2.1-3.5c-0.8-7.2 4.6-13.5-7.3-27.3 0.7 9.9-1.1 12.6 1.5 18.7q-1.7-2.3-3.6-4.6c-1.5-6.6 2.9-13.1-9.7-24.7 1.7 9.2 0.3 12 3.4 17.4q-2-2.1-4.1-4.2c-2.1-6.1 1.4-13-11.8-22.6 2.5 8.7 1.4 11.5 5 16.4q-2.2-1.9-4.5-3.7c-2.7-5.8 0.4-12.6-13.8-20.7 3.5 8.4 2.4 11.1 6.5 15.5q-2.4-1.6-4.8-3.1c-3.1-5.2-0.8-12-14.8-18.2 4.1 7.7 3.2 10.3 7.7 14.2q-2.5-1.3-5-2.6c-8.2-7.1-11.7-9-23.5-7.2 4 1.2 5.7 6.1 10.5 6.8 3.1 0.5 7.3 0.4 11 1q4.9 2.3 9.6 4.9c-3-1.1-4.9-2.2-7.7-2.4-4.6-0.4-7.6 2.7-12.2 2.8 10.6 6 17 0.7 23 1.5q4.9 2.9 9.4 6.2c-3.4-1.7-5.5-3.3-8.5-3.9-4.9-0.8-8.2 2.3-13.1 1.8 10.8 7.6 18 2.6 24.3 4.1q4.7 3.6 9 7.6c-3.4-2.2-5.3-4-8.3-4.9-4.7-1.4-8.4 1.3-13.2 0.3 9.8 8.5 17.6 4.5 23.8 6.8q4.4 4.2 8.4 8.9c-3.3-2.7-5.1-4.9-8.1-6.2-4.7-2.1-8.5 0.2-13.4-1.4 9.2 10 17.5 6.9 23.5 10q3.7 4.5 6.9 9.3 0.4 0.5 0.7 1c-3.3-3.3-4.9-5.9-8-7.8-4.7-2.7-8.1-0.6-13-3 8.5 11.9 16.9 9.4 22.8 13.6q3.7 5.9 6.8 12.3c-3.5-4-5-7.4-8.2-9.7-4.5-3.2-8.4-1.8-13.1-4.6 8.2 13.6 16.9 11.8 22.4 16.6q2.9 6.4 5.2 13.2c-3.7-5.6-3.9-9.4-9.1-12.2-3.9-2.1-6.9-2.2-10.4-4.9 6.4 14.6 15.5 14 20.3 19.6q2.3 7.3 3.7 14.8c-3-6.4-2.6-10.4-7.3-14-3.5-2.7-7.7-4.3-10.7-7.5 4.3 15.9 14.5 17.2 18.4 24.1q1.1 6.2 1.5 12.7c-1.7-6-1.1-9.7-5.1-13.6-3-3-7.1-5.1-9.6-8.7 2.1 15.8 11.6 18.7 14.9 25.4q0.1 2.9 0.1 5.9 0 4.2-0.2 8.3c-1-6.2 0.4-9.4-3.1-13.8-2.7-3.3-6.7-6.2-8.8-10 0.1 15.7 9.3 19.6 11.7 26.7q-0.6 7-1.9 13.7c-0.1-6.1 1.6-9.1-1.1-13.8-2.2-3.7-5.8-7.1-7.3-11.1-2.1 15.5 6.4 20.6 7.7 27.9q-1.4 6.7-3.5 13.1c0.6-5.9 2.7-8.6 0.4-13.5-1.7-3.8-4.9-7.5-6-11.6-3.8 14.7 4.1 20.7 4.6 27.9q-2.3 6.6-5.3 12.9c1.5-5.9 3.9-8.4 2.4-13.7-1.2-4.1-3.8-8.3-4.3-12.6-5.9 14.5 1 21.6 0.5 29q-3.1 6.2-6.9 11.9c2.3-5.9 5-8 4.2-13.6-0.7-4.3-2.8-8.8-2.7-13.2-7.6 13.8-1.6 21.8-3.1 29.2q-4.1 6-8.7 11.4c3-5.8 6.1-7.5 6-13.3 0-4.4-1.2-9.7-0.6-14.1-9.5 13-4.7 22.2-7.3 29.6q-0.2 0.2-0.4 0.4-4.7 5.2-9.9 9.8c3.8-5.6 7.3-7 8-12.9 0.5-4.4-0.2-9.5 1-13.8-11.1 11.6-7.4 21.6-11 28.5q-5.3 4.5-11.1 8.4c4.5-5.2 8.4-6.4 9.6-12.2 0.9-4.3 0.4-9.1 2-13.2-12.1 10.3-9.5 20.4-13.6 26.8q-6.1 4-12.6 7.3c4.9-4.1 8.5-4.5 10.6-9.9 1.5-4 2-9.1 4.3-12.9-13.7 8.1-12.4 18.4-17.5 24.1q-5.9 2.8-12.1 5c5.1-3 8.7-3.4 11.3-8.2 2.1-3.9 3-8.4 5.7-11.9-13.9 5.9-14.6 16-20.1 21.2q-6.5 2.1-13.3 3.6c5.7-2.7 9.2-2.1 12.3-6.7 2.3-3.5 3.8-8.2 6.7-11.2-15 4.3-15.6 14.4-21.8 18.4q-6 1.2-12.2 1.8c-0.3 0-0.6 0.3-0.6 0.7 0.1 0.4 0.4 0.6 0.8 0.6q6.3-0.6 12.5-1.8c6.6 2 10.2 9.3 27.4 4.3-9.3-2.8-11-6.4-17.6-6.6q2.6-0.7 5.3-1.5c7.1 0.7 11.3 8.3 28.5 0.6-9.8-1.7-11.7-5.2-18.9-4.1q3.4-1.4 6.6-3c7.2 0.2 13.8 6.8 28.3-3.3-9.8-0.4-11.8-3.5-19.9-1q3.6-2.1 7-4.3c7.1-1.2 14.5 4 27.2-8.2-8.8 1.1-12.1-0.8-17.5 1.1q1.9-1.5 3.7-3c6.9-1.7 14.5 3 26.6-10.9-9.5 2.2-12.7 0.2-19 3.9q2.2-2.3 4.3-4.6 0.2-0.2 0.3-0.3c6.7-2.9 15 0.4 24.6-15.1-8.6 3.3-12.2 2.3-17.3 6.2q1.8-2.3 3.4-4.7c6.2-3.7 14.9-1.6 22.4-18-8.2 4.4-11.9 3.9-16.5 8.5q1.4-2.4 2.6-4.8c5.8-4.4 14.7-3.4 20.1-20.5-7.8 5.5-11.5 5.3-15.6 10.8q1.3-3.1 2.4-6.1c5-5.1 13.4-5.5 16.4-22.8z"/>
			<g id="&lt;Group&gt;">
				<path id="&lt;Compound Path&gt;" fill-rule="evenodd" class="s0" d="m254.5 131.9l2.2-2.5c1.3-1.6 2.1-3.6 2.1-5.7 0-4.9-3.9-8.8-8.8-8.8q0 0 0 0c-4.9 0-8.8 4-8.8 8.8 0 2.1 0.8 4.1 2.1 5.7l2.2 2.5-3.3 0.8c-2.4 0.5-5.2 1.6-6.7 3.7-1.9 2.9-7.5 4.5-10.8 4.6q-0.7 0-1.3 0-1.5-0.1-2.9-0.5c-2.6-0.6-4.9-1.6-7.4-2.5-2.9-1-5.9-1.7-9.1-1.6-2.9 0.1-5.4 1.1-8 2.6l-2.3 1.4-0.6-2.6q-0.3-0.9-0.8-1.8c-1.5-2.3-4.2-3.2-6.9-3-5.8 0.4-8.7 6.1-6.9 11.4 0.7 1.9 2 3.5 3.8 4.6l1.2 0.8-19.9 90-0.5 0.4c-0.5 0.5-0.7 1.1-0.7 1.8 2.1 18.3 46.8 18.3 48.9 0 0.1-0.7-0.1-1.3-0.6-1.8l-0.6-0.4-19.7-89.7 1.6-0.6q0.9-0.3 1.7-0.7c3.1-1.6 6.6-3.1 10.1-3.1 2.4-0.1 4.4 0.6 6.5 1.6 2.5 1.3 4.8 2.9 7.3 4 3.5 1.6 7 2.1 10.7 1.6 2.1-0.2 4.2-0.5 6.3-0.8l4.7-0.8-2.8 3.9c-0.8 1-1.2 2.3-1.2 3.6 0 3.4 2.8 6.1 6.2 6.1h2.2v4.8l-4.5 94.6-1.4 0.4c-1.7 0.5-2.9 2-2.9 3.8 0 1 0.3 1.9 1 2.7l0.8 0.8-0.4 1.2q-0.2 0.6-0.2 1.3c0 1.3 0.7 2.6 1.8 3.3l1 0.7-0.1 1.1c-0.2 5.1-0.8 10.3-1.7 15.3-0.9 5.4-2.3 11-4.7 16-0.4 0.7-0.3 1.5 0.3 2.1 1.8 2.1 3.3 4.3 4.8 6.6 2.9 4.3 5.4 8.9 7.4 13.7l0.5 1.1-0.8 1c-1 1.2-1.6 2.8-1.6 4.4 0 3.8 3.2 6.9 7 6.9 3.8 0 7-3.1 7-6.9 0-1.6-0.6-3.2-1.6-4.4l-0.8-1 0.5-1.1c2-4.8 4.5-9.4 7.4-13.7 1.5-2.3 3-4.5 4.8-6.6 0.6-0.6 0.7-1.4 0.3-2.1-2.4-5-3.8-10.6-4.7-16-0.9-5-1.5-10.2-1.7-15.3l-0.1-1.1 1-0.7c1.1-0.7 1.8-2 1.8-3.3q0-0.7-0.2-1.3l-0.4-1.2 0.8-0.8c0.7-0.8 1-1.7 1-2.7 0-1.8-1.2-3.3-2.9-3.8l-1.4-0.4-4.5-94.6v-4.8h2.2c3.4 0 6.2-2.7 6.2-6.1 0-1.3-0.4-2.6-1.2-3.6l-2.8-3.9 4.7 0.8c2.1 0.3 4.2 0.6 6.3 0.8 3.7 0.5 7.2 0 10.7-1.6 2.5-1.1 4.8-2.7 7.3-4 2.1-1 4.1-1.7 6.5-1.6 3.5 0 7 1.5 10.1 3.1q0.8 0.4 1.7 0.7l1.6 0.6-19.7 89.7-0.6 0.4c-0.5 0.5-0.7 1.1-0.6 1.8 2.1 18.3 46.8 18.3 48.9 0 0-0.7-0.2-1.3-0.7-1.8l-0.5-0.4-19.9-90 1.2-0.8c1.8-1.1 3.1-2.7 3.8-4.6 1.8-5.3-1.1-11-6.9-11.4-2.7-0.2-5.4 0.7-6.9 3q-0.5 0.9-0.8 1.8l-0.6 2.6-2.3-1.4c-2.6-1.5-5.1-2.5-8-2.6-3.2-0.1-6.2 0.6-9.1 1.6-2.5 0.9-4.8 1.9-7.4 2.5q-1.4 0.4-2.9 0.5-0.6 0-1.3 0c-3.3-0.1-8.9-1.7-10.8-4.6-1.4-2.1-4.3-3.2-6.7-3.7zm-49.2 110.9h-37l18.5-83.8zm107.7-83.8l18.5 83.8h-36.9z"/>
				<g id="&lt;Group&gt;">
					<path id="&lt;Path&gt;" fill-rule="evenodd" class="s2" d="m245 339.8c0 2.7 2.3 4.9 5 4.9 2.7 0 5-2.2 5-4.9 0-2.8-2.3-5-5-5-2.7 0-5 2.2-5 5z"/>
					<g id="&lt;Group&gt;">
						<g id="&lt;Group&gt;">
							<path id="&lt;Path&gt;" fill-rule="evenodd" class="s2" d="m246.4 129.5c-1.9-1.2-3.2-3.4-3.2-5.8 0-3.8 3-6.8 6.8-6.8q0 0 0 0c3.8 0 6.8 3 6.8 6.8 0 2.4-1.3 4.6-3.2 5.8v4.5c3.2 0.3 7.7 1.2 9.2 3.5 2.1 3.1 8.2 5.7 13.9 5.4 6.5-0.3 11.7-4.7 19.2-4.5 7.1 0.3 10.6 6.5 16.8 6.7 5.8 0.2 5-8.2 1.1-5.6 1 1.8-0.7 2.9-2.3 2.8-4.3-0.3-3.7-7.8 3-7.3 3.9 0.3 6.7 4.1 5.1 8.7-1.6 4.6-7.2 6-12.4 3.3-19.2-10-19.9 5.7-35.3 3.9-7.2-0.8-9.8-1.8-17.6-2v5.8h4.2c2.3 0 4.2 1.8 4.2 4.1 0 2.3-1.9 4.1-4.2 4.1h-4.2v6.9l4.7 96.7h2.1c1.1 0 2 0.9 2 2 0 1.1-0.9 2-2 2h-2.1v2h0.9c1.1 0 2 0.9 2 2 0 1.1-0.9 2-2 2h-0.8c0 1.9 0.6 22.7 6.7 35.2 0 0-12.2 14-15.8 31.3-3.6-17.3-15.8-31.3-15.8-31.3 6.1-12.5 6.7-33.3 6.7-35.2h-0.8c-1.1 0-2-0.9-2-2 0-1.1 0.9-2 2-2h0.9v-2h-2.1c-1.1 0-2-0.9-2-2 0-1.1 0.9-2 2-2h2.1l4.7-96.7v-6.9h-4.2c-2.3 0-4.2-1.8-4.2-4.1 0-2.3 1.9-4.1 4.2-4.1h4.2v-5.8c-7.8 0.2-10.4 1.2-17.6 2-15.4 1.8-16.1-13.9-35.3-3.9-5.2 2.7-10.8 1.3-12.4-3.3-1.6-4.6 1.2-8.4 5.1-8.7 6.7-0.5 7.3 7 3 7.3-1.6 0.1-3.3-1-2.3-2.8-3.9-2.6-4.7 5.8 1.1 5.6 6.2-0.2 9.7-6.4 16.8-6.7 7.5-0.2 12.7 4.2 19.2 4.5 5.7 0.3 11.8-2.3 13.9-5.4 1.5-2.3 6-3.2 9.2-3.5z"/>
							<path id="&lt;Compound Path&gt;" fill-rule="evenodd" class="s1" d="m249.7 118.3q0.1 0 0.3 0c-1.8 0.9-3.1 3-3.1 5.4 0 2.4 1.3 4.5 3.1 5.4q-0.2 0-0.3 0c-2.8 0-5.1-2.4-5.1-5.4 0-3 2.3-5.4 5.1-5.4zm66.7 18.1c-2.6-1.1-7.4-0.4-5.8 3.4 0 0 0.2-3.7 5.8-3.4zm-12.3 6.7c-11.5-9.2-19.1 3.6-32.4 1 12.3 5.3 19.9-8.4 32.4-1zm-120.5-6.7c2.6-1.1 7.4-0.4 5.8 3.4 0 0-0.2-3.7-5.8-3.4zm58.7 25c-1.5 0-2.6-1.2-2.6-2.6 0-1.5 1.1-2.6 2.6-2.6h0.3c0.5 2 1.7 4 4.2 5.2zm-46.4-18.3c11.5-9.2 19.1 3.6 32.4 1-12.3 5.3-19.9-8.4-32.4-1z"/>
							<path id="&lt;Compound Path&gt;" fill-rule="evenodd" class="s1" d="m250 150.4h-2.1v4.3h2.1zm2 0h-0.9v4.2h0.9zm0-19.4h-0.9v3c0.5-0.1 0.8-0.1 0.9-0.1zm-2 0h-2.1v3c1.1 0 1.9 0 2.1 0z"/>
							<path id="&lt;Compound Path&gt;" fill-rule="evenodd" class="s1" d="m247.9 164.2h2.1l-0.2 102.3h-4.8l2.9-95.8zm4.1 0h-0.9l0.1 102.3h2.1l-1.3-95.7z"/>
							<path id="&lt;Compound Path&gt;" fill-rule="evenodd" class="s1" d="m239.3 311.2c0 0 4.6 6 6.4 10l0.3-44.7h-1.5c0 11.6-2.2 26.7-5.2 34.7zm10.7-0.8c1 0 1.8 0.7 1.8 1.7 0 1-0.8 1.8-1.8 1.8-1 0-1.8-0.8-1.8-1.8 0-1 0.8-1.7 1.8-1.7zm0.2-33.9l0.2 33.6c0.5 0.1 0.9 0.3 1.2 0.7l-0.3-34.3zm0.2 37.7v15.1c2.2-5.9 5.5-12.1 10.4-18.1-3.5-8.1-5.3-23.4-5.3-34.7h-2.4c0 11.7 1.4 25.5 3.2 34.4 0 0-2.9 4.6-4.6 10.1l-0.1-7.6c-0.3 0.4-0.8 0.7-1.2 0.8zm-2.3-37.7l1 33.7q0.3-0.1 0.6-0.1l-0.2-33.6zm1.1 37.6l0.7 19.6-0.2-19.5q-0.3 0-0.5-0.1zm-4.8-22.1c0 0-0.2 11.3-1.7 19.2l1.5 5.1c0 0-2-3.6-3.3-5.1 0 0 2.7-9.2 3.5-19.2z"/>
						</g>
						<g id="&lt;Group&gt;">
							<g id="&lt;Group&gt;">
								<g id="&lt;Group&gt;">
									<path id="&lt;Path&gt;" fill-rule="evenodd" class="s2" d="m290.7 241.7c0 0 1.7 1.1 2.4 3.1h40.1c0.7-2 2.4-3.1 2.4-3.1-1.8 16-43.1 16-44.9 0z"/>
									<path id="&lt;Compound Path&gt;" fill-rule="evenodd" class="s1" d="m313.4 251.8c6.8 0 13.9-1.7 17.2-5.1h-7.1c-1.4 2.5-4.9 5-10.1 5.1zm0 0c3.2-0.2 4.7-3.7 5.2-5.1h3c-1 2.1-3.6 5-8.2 5.1z"/>
								</g>
								<path id="&lt;Path&gt;" fill-rule="evenodd" class="s2" d="m292.4 243.6c-0.1 0.3-0.4 0.6-0.8 0.5-0.3-0.1-0.6-0.4-0.5-0.8l21.4-96.7q0 0 0-0.1 0.1-0.1 0.1-0.2h0.1q0-0.1 0.2-0.2 0.1 0 0.2 0 0.1 0 0.2 0h0.1q0.1 0.1 0.2 0.2 0.1 0.1 0.1 0.2 0.1 0.1 0.1 0.1l21.3 96.7c0.1 0.4-0.1 0.7-0.5 0.8-0.4 0.1-0.7-0.2-0.8-0.5l-20.7-93.8z"/>
							</g>
							<g id="&lt;Group&gt;">
								<g id="&lt;Group&gt;">
									<path id="&lt;Path&gt;" fill-rule="evenodd" class="s2" d="m209.3 241.7c0 0-1.7 1.1-2.4 3.1h-40.1c-0.7-2-2.4-3.1-2.4-3.1 1.8 16 43.1 16 44.9 0z"/>
									<path id="&lt;Compound Path&gt;" fill-rule="evenodd" class="s1" d="m186.6 251.8c-6.8 0-13.9-1.7-17.2-5.1h7.1c1.4 2.5 4.9 5 10.1 5.1zm0 0c-3.2-0.2-4.7-3.7-5.2-5.1h-3c1 2.1 3.6 5 8.2 5.1z"/>
								</g>
								<path id="&lt;Path&gt;" fill-rule="evenodd" class="s2" d="m208.9 243.3c0.1 0.4-0.2 0.7-0.5 0.8-0.4 0.1-0.7-0.2-0.8-0.5l-20.7-93.8-20.7 93.8c-0.1 0.3-0.4 0.6-0.8 0.5-0.4-0.1-0.6-0.4-0.5-0.8l21.3-96.7q0 0 0.1-0.1 0-0.1 0.1-0.2 0.1-0.1 0.2-0.2h0.1q0.1 0 0.2 0 0.1 0 0.2 0 0.2 0.1 0.2 0.2h0.1q0 0.1 0.1 0.2 0 0.1 0 0.1z"/>
							</g>
						</g>
					</g>
				</g>
			</g>
		</g>
	</g>
</svg>