<?xml version="1.0" standalone="no"?>
<!DOCTYPE svg PUBLIC "-//W3C//DTD SVG 20010904//EN"
 "http://www.w3.org/TR/2001/REC-SVG-20010904/DTD/svg10.dtd">
<svg version="1.0" xmlns="http://www.w3.org/2000/svg"
 width="512.000000pt" height="512.000000pt" viewBox="0 0 512.000000 512.000000"
 preserveAspectRatio="xMidYMid meet">

<g transform="translate(0.000000,512.000000) scale(0.100000,-0.100000)"
fill="#000000" stroke="none">
<path d="M545 5104 c-38 -8 -112 -36 -164 -61 -78 -37 -109 -59 -177 -127 -68
-68 -90 -99 -127 -177 -50 -102 -77 -212 -77 -309 0 -97 27 -207 77 -309 132
-275 447 -428 751 -365 71 14 200 68 264 110 l26 17 365 -358 365 -359 -43
-60 c-172 -242 -222 -549 -133 -826 26 -81 79 -190 124 -253 19 -26 34 -51 34
-55 0 -4 -109 -114 -242 -243 l-243 -235 -55 27 c-310 156 -684 -125 -621
-466 42 -229 229 -375 463 -363 67 3 97 10 148 35 169 79 270 246 258 428 -4
61 -13 90 -61 205 -1 3 107 113 241 244 l242 239 59 -42 c114 -80 253 -134
424 -166 l27 -5 0 -279 0 -279 -47 -12 c-229 -57 -402 -281 -403 -521 0 -76
33 -199 72 -267 40 -71 129 -160 200 -200 68 -39 191 -72 268 -72 31 0 92 9
134 20 302 77 475 394 377 690 -56 169 -205 308 -374 351 l-47 11 0 279 0 278
38 6 c148 25 319 96 427 178 l60 46 90 -87 c187 -181 635 -627 635 -633 0 -4
-20 -36 -44 -72 -101 -151 -137 -334 -100 -515 74 -370 441 -612 812 -536 44
8 117 35 170 60 77 37 108 59 177 129 70 69 92 100 129 177 101 209 100 408
-1 617 -37 78 -59 109 -127 177 -68 68 -99 90 -177 127 -207 101 -411 102
-611 3 l-87 -43 -370 365 -371 364 29 41 c68 99 129 250 150 371 14 77 14 235
0 312 -22 127 -85 277 -157 379 l-35 49 216 211 c119 115 345 336 502 489 267
261 288 279 307 267 51 -32 156 -63 232 -68 155 -11 305 46 416 157 72 72 115
147 140 246 25 98 25 170 0 268 -25 99 -68 174 -140 246 -72 72 -147 115 -246
140 -98 25 -170 25 -268 0 -99 -25 -176 -69 -247 -139 -175 -176 -208 -459
-78 -662 17 -27 29 -52 27 -56 -1 -5 -223 -225 -493 -489 l-490 -481 -60 42
c-243 172 -548 222 -825 133 -82 -26 -190 -79 -253 -124 l-48 -35 -369 363
-369 362 20 31 c41 61 88 172 103 247 32 155 13 294 -61 447 -37 78 -59 109
-127 177 -68 68 -99 90 -177 127 -152 74 -299 93 -454 61z m247 -175 c229 -47
408 -266 408 -499 0 -273 -237 -510 -510 -510 -273 0 -510 237 -510 510 0 316
303 563 612 499z m3934 -23 c77 -35 145 -103 181 -180 24 -52 28 -74 28 -146
0 -72 -4 -94 -28 -146 -36 -77 -104 -145 -182 -181 -51 -24 -73 -28 -145 -28
-72 0 -94 4 -145 28 -78 36 -146 104 -182 181 -24 52 -28 74 -28 146 0 72 4
94 28 145 86 183 293 263 473 181z m-1990 -1616 c341 -87 574 -383 574 -730 0
-557 -583 -918 -1085 -671 -306 151 -473 500 -399 834 20 93 90 236 151 312
97 119 254 218 405 256 103 25 253 25 354 -1z m-1511 -1938 c152 -82 180 -286
57 -410 -67 -66 -167 -89 -264 -60 -50 15 -122 78 -151 132 -34 65 -31 165 8
235 71 129 220 173 350 103z m3307 -163 c229 -47 408 -266 408 -499 0 -273
-237 -510 -510 -510 -273 0 -510 237 -510 510 0 316 303 563 612 499z m-1826
-323 c77 -35 145 -103 181 -180 24 -52 28 -74 28 -146 0 -72 -4 -94 -28 -146
-36 -77 -104 -145 -182 -181 -51 -24 -73 -28 -145 -28 -72 0 -94 4 -145 28
-78 36 -146 104 -182 181 -24 52 -28 74 -28 146 0 72 4 94 28 145 86 183 293
263 473 181z"/>
</g>
</svg>
