<?xml version="1.0" standalone="no"?>
<!DOCTYPE svg PUBLIC "-//W3C//DTD SVG 20010904//EN"
 "http://www.w3.org/TR/2001/REC-SVG-20010904/DTD/svg10.dtd">
<svg version="1.0" xmlns="http://www.w3.org/2000/svg"
 width="512.000000pt" height="512.000000pt" viewBox="0 0 512.000000 512.000000"
 preserveAspectRatio="xMidYMid meet">

<g transform="translate(0.000000,512.000000) scale(0.100000,-0.100000)"
fill="#000000" stroke="none">
<path d="M366 4804 c-14 -14 -16 -231 -16 -2244 0 -2013 2 -2230 16 -2244 14
-14 222 -16 2139 -16 l2124 0 15 22 c12 17 16 49 16 135 0 100 -2 115 -20 133
-11 11 -24 20 -30 20 -7 0 -10 193 -10 560 l0 560 23 0 c12 0 40 9 63 19 100
45 114 179 27 252 -16 13 -223 145 -461 294 l-432 270 0 1111 c0 1064 -1 1112
-18 1127 -17 16 -151 17 -1720 17 -1533 0 -1702 -2 -1716 -16z m3354 -1130 c0
-575 -3 -1043 -7 -1041 -200 122 -217 128 -274 104 -44 -18 -1156 -712 -1187
-741 -82 -74 -65 -203 32 -247 23 -10 51 -19 64 -19 l22 0 0 -560 c0 -421 -3
-560 -12 -560 -6 0 -20 -7 -30 -17 -15 -13 -18 -32 -18 -105 l0 -88 -930 0
-930 0 0 2160 0 2160 1635 0 1635 0 0 -1046z m346 -1380 c313 -196 577 -363
587 -372 27 -24 19 -74 -15 -86 -24 -8 -77 23 -580 337 -304 191 -562 347
-573 347 -10 0 -267 -155 -571 -345 -304 -190 -562 -345 -573 -345 -28 0 -54
41 -44 68 9 22 1155 750 1184 751 8 1 272 -159 585 -355z m-71 -198 l500 -314
3 -586 2 -586 -595 0 -595 0 0 430 c0 414 -1 430 -19 440 -13 6 -137 10 -335
10 -273 0 -317 -2 -330 -16 -14 -14 -16 -67 -16 -440 l0 -424 -70 0 -70 0 2
586 3 586 500 314 c275 173 505 314 510 314 6 0 235 -141 510 -314z m-777
-1098 l2 -388 -255 0 -255 0 0 390 0 390 253 -2 252 -3 3 -387z m1342 -543 l0
-55 -1075 0 -1075 0 0 55 0 55 1075 0 1075 0 0 -55z"/>
<path d="M1995 4481 c-22 -10 -51 -30 -64 -45 l-24 -26 -271 0 c-238 0 -275
-2 -305 -18 -72 -36 -99 -121 -67 -207 23 -58 65 -85 135 -85 l53 0 -123 -239
-123 -238 13 -57 c16 -73 61 -130 131 -170 53 -30 59 -31 175 -31 149 0 195
15 258 85 44 49 67 103 67 159 0 20 -40 109 -115 255 -63 122 -115 226 -115
229 0 4 70 7 155 7 l155 0 0 -460 0 -460 -77 0 c-121 0 -188 -44 -208 -137
-14 -69 37 -156 108 -182 18 -7 142 -11 333 -11 284 0 307 1 344 20 60 31 85
73 85 146 0 50 -5 66 -27 96 -39 52 -82 68 -177 68 l-81 0 0 460 0 460 161 0
161 0 -123 -239 -123 -238 13 -57 c16 -73 61 -130 131 -170 53 -30 59 -31 175
-31 149 0 195 15 258 85 44 49 67 103 67 159 0 20 -40 109 -115 255 -63 122
-115 225 -115 228 0 3 27 8 60 10 52 4 66 9 93 36 29 29 32 38 35 104 2 60 -1
79 -18 106 -36 58 -59 62 -358 62 l-269 0 -24 26 c-35 38 -96 64 -154 64 -27
0 -68 -9 -90 -19z m185 -131 l35 -40 295 -2 295 -3 0 -50 0 -50 -714 -3 c-519
-1 -718 1 -727 9 -17 14 -18 71 -2 87 9 9 89 12 300 12 l289 0 37 40 c65 70
131 70 192 0z m-50 -710 l0 -460 -50 0 -50 0 0 460 0 460 50 0 50 0 0 -460z
m-501 214 c50 -96 91 -177 91 -180 0 -2 -85 -4 -189 -4 l-190 0 92 180 c51 99
95 180 99 180 3 0 47 -79 97 -176z m1100 0 c50 -96 91 -177 91 -180 0 -2 -85
-4 -189 -4 l-190 0 92 180 c51 99 95 180 99 180 3 0 47 -79 97 -176z m-989
-294 c0 -22 -64 -80 -98 -90 -62 -17 -191 -12 -238 9 -38 17 -84 62 -84 82 0
5 95 9 210 9 128 0 210 -4 210 -10z m1100 0 c0 -22 -64 -80 -98 -90 -62 -17
-191 -12 -238 9 -38 17 -84 62 -84 82 0 5 95 9 210 9 128 0 210 -4 210 -10z
m-442 -496 c27 -18 30 -69 5 -96 -15 -17 -38 -18 -319 -18 l-303 0 -20 26
c-12 15 -21 32 -21 39 0 7 9 24 21 39 l20 26 298 0 c252 0 300 -2 319 -16z"/>
<path d="M668 2599 c-21 -12 -24 -59 -6 -77 17 -17 2159 -17 2176 0 19 19 15
66 -7 78 -27 14 -2139 13 -2163 -1z"/>
<path d="M663 2123 c-16 -6 -17 -55 -1 -71 17 -17 1439 -17 1456 0 15 15 15
51 0 66 -9 9 -183 12 -728 11 -393 0 -721 -3 -727 -6z"/>
<path d="M662 1648 c-19 -19 -15 -66 7 -78 13 -6 245 -10 684 -10 638 0 666 1
688 19 20 16 22 23 14 47 l-10 29 -686 3 c-524 2 -688 -1 -697 -10z"/>
<path d="M660 1170 c-24 -24 -24 -29 -4 -58 l15 -22 783 0 c595 0 785 3 794
12 17 17 15 54 -4 72 -14 14 -99 16 -790 16 -761 0 -774 0 -794 -20z"/>
<path d="M657 703 c-11 -11 -8 -58 5 -71 17 -17 1579 -17 1596 0 15 15 15 51
0 66 -9 9 -201 12 -803 12 -436 0 -795 -3 -798 -7z"/>
<path d="M3417 2166 c-133 -37 -224 -175 -201 -303 9 -52 46 -122 81 -154 83
-78 211 -97 309 -46 197 101 197 387 1 481 -66 32 -129 39 -190 22z m160 -117
c122 -76 95 -268 -44 -309 -128 -39 -252 84 -214 211 33 111 160 159 258 98z"/>
<path d="M3546 1477 c-15 -11 -17 -37 -17 -276 0 -186 4 -267 12 -277 9 -12
73 -14 365 -14 307 0 355 2 368 16 14 13 16 52 16 273 0 237 -1 259 -18 274
-17 15 -57 17 -363 17 -263 0 -349 -3 -363 -13z m314 -157 l0 -70 -120 0 -120
0 0 70 0 70 120 0 120 0 0 -70z m330 0 l0 -70 -115 0 -115 0 0 70 0 70 115 0
115 0 0 -70z m-330 -240 l0 -70 -120 0 -120 0 0 70 0 70 120 0 120 0 0 -70z
m330 0 l0 -70 -115 0 -115 0 0 70 0 70 115 0 115 0 0 -70z"/>
<path d="M3054 1106 c-16 -12 -20 -29 -22 -98 -3 -72 -1 -87 16 -108 17 -21
24 -23 48 -15 29 10 29 11 32 104 2 77 0 97 -14 112 -20 23 -34 24 -60 5z"/>
</g>
</svg>
