<?xml version="1.0" standalone="no"?>
<!DOCTYPE svg PUBLIC "-//W3C//DTD SVG 20010904//EN"
 "http://www.w3.org/TR/2001/REC-SVG-20010904/DTD/svg10.dtd">
<svg version="1.0" xmlns="http://www.w3.org/2000/svg"
 width="512.000000pt" height="512.000000pt" viewBox="0 0 512.000000 512.000000"
 preserveAspectRatio="xMidYMid meet">

<g transform="translate(0.000000,512.000000) scale(0.100000,-0.100000)"
fill="#000000" stroke="none">
<path d="M2438 5104 c-111 -26 -213 -93 -283 -184 l-45 -58 -122 -4 c-143 -5
-193 -23 -266 -96 -65 -65 -96 -140 -96 -232 0 -66 14 -124 112 -468 62 -216
112 -398 112 -405 0 -7 -20 -27 -44 -44 -29 -21 -52 -49 -71 -87 -24 -48 -27
-65 -23 -125 3 -56 9 -78 36 -120 17 -29 32 -54 32 -55 0 -2 -24 -22 -53 -44
-86 -65 -223 -199 -324 -316 -195 -228 -359 -518 -452 -801 -28 -85 -51 -162
-51 -170 0 -13 -44 -15 -333 -15 -377 0 -409 -5 -478 -67 -51 -46 -79 -101
-86 -168 -6 -58 14 -134 44 -167 16 -18 16 -22 -12 -71 -26 -45 -30 -62 -30
-127 0 -64 4 -82 27 -122 l28 -46 -28 -53 c-22 -44 -27 -66 -27 -124 1 -82 23
-134 80 -183 35 -31 35 -32 20 -61 -18 -37 -19 -144 -1 -186 12 -29 11 -32
-23 -65 -56 -55 -76 -103 -76 -185 1 -104 46 -178 140 -229 40 -21 45 -21 774
-24 843 -3 799 -7 886 83 l50 51 110 -37 c126 -42 267 -73 407 -88 135 -15
2596 -15 2635 0 38 14 83 57 99 96 12 27 14 175 14 832 0 542 -3 809 -11 828
-15 40 -48 73 -94 94 -37 17 -72 19 -417 19 -329 0 -378 2 -378 15 0 8 -23 85
-51 171 -137 416 -397 800 -734 1082 -49 42 -90 78 -90 81 0 3 13 28 30 56 44
73 48 164 10 241 -19 38 -42 66 -71 87 -24 17 -44 37 -44 44 0 7 50 189 112
405 98 344 112 402 112 468 0 92 -31 167 -96 232 -73 73 -123 91 -266 96
l-122 4 -45 58 c-123 159 -331 232 -527 184z m267 -189 c69 -33 132 -96 164
-165 25 -53 26 -63 31 -288 l5 -234 28 -24 c31 -26 57 -30 90 -12 45 23 46 32
47 271 l0 227 66 0 c77 0 127 -23 161 -73 45 -66 43 -79 -85 -527 l-118 -415
-534 0 -534 0 -118 415 c-128 446 -129 458 -87 527 30 49 85 73 164 73 l65 0
0 -227 c1 -239 2 -248 47 -271 33 -18 59 -14 90 12 l28 24 5 234 c5 226 6 235
32 290 27 59 91 129 143 155 96 51 217 54 310 8z m488 -1427 c53 -28 64 -92
22 -133 l-24 -25 -631 0 -631 0 -24 25 c-41 40 -31 104 20 133 29 16 1237 17
1268 0z m29 -390 c107 -73 272 -228 376 -353 170 -203 332 -491 411 -730 130
-393 113 -715 -55 -1045 -223 -437 -686 -734 -1232 -791 -244 -25 -543 16
-771 105 -76 30 -87 39 -95 72 -6 21 0 33 29 61 49 47 67 87 73 160 6 79 -15
140 -71 200 -38 42 -39 44 -26 75 21 50 16 145 -9 195 -12 23 -26 44 -32 48
-6 3 3 29 22 62 27 48 32 67 32 123 0 55 -5 75 -31 121 -30 54 -31 55 -12 78
20 25 49 111 49 146 0 57 -33 128 -80 175 -75 75 -100 80 -442 80 -158 0 -288
2 -288 5 0 2 18 60 40 127 134 408 449 845 780 1080 l95 68 573 0 574 0 90
-62z m-1567 -1400 c33 -15 58 -62 49 -91 -3 -12 -16 -32 -27 -44 l-20 -23
-717 0 c-793 0 -753 -3 -766 65 -7 40 14 81 49 95 36 14 1401 12 1432 -2z
m2893 -57 c28 -86 84 -173 148 -230 52 -46 166 -107 221 -117 l33 -6 0 -348 0
-348 -69 -21 c-158 -48 -284 -174 -332 -334 l-21 -67 -591 0 -592 0 72 40
c452 246 747 635 830 1093 11 62 16 143 16 250 l-1 157 132 0 132 0 22 -69z
m402 -56 l0 -125 -27 11 c-56 21 -113 60 -147 102 -33 41 -66 103 -66 127 0 6
44 10 120 10 l120 0 0 -125z m-3307 -226 c28 -8 42 -19 54 -45 16 -31 16 -37
0 -68 -12 -26 -26 -37 -54 -45 -25 -7 -271 -11 -713 -11 -623 0 -678 1 -710
18 -41 20 -58 59 -44 100 5 15 24 34 44 44 32 17 87 18 710 18 442 0 688 -4
713 -11z m34 -361 c11 -13 24 -33 27 -45 10 -30 -17 -78 -51 -92 -21 -8 -215
-11 -731 -9 l-704 3 -25 29 c-20 24 -24 36 -19 65 12 75 -37 71 765 71 l718 0
20 -22z m88 -343 c37 -36 34 -86 -6 -119 l-31 -26 -699 0 c-741 0 -745 0 -763
45 -13 35 -6 76 19 100 l24 25 716 0 716 0 24 -25z m3185 -365 l0 -120 -121 0
-121 0 6 28 c17 67 114 172 188 201 47 20 48 18 48 -109z m-3274 26 c39 -33
39 -89 0 -122 l-27 -24 -710 0 -711 0 -29 29 c-31 31 -36 59 -17 94 25 48 3
46 755 47 l712 0 27 -24z"/>
<path d="M2513 2545 c-12 -8 -27 -31 -33 -50 -7 -22 -18 -35 -29 -35 -10 0
-46 -14 -80 -31 -165 -82 -262 -270 -231 -446 27 -160 135 -288 284 -339 l46
-16 0 -249 c0 -145 -4 -249 -9 -249 -5 0 -29 15 -53 33 -53 41 -95 115 -104
186 -11 91 -76 129 -137 81 -33 -26 -40 -59 -26 -133 25 -138 110 -253 232
-311 40 -19 79 -36 88 -39 9 -3 19 -19 22 -36 5 -22 16 -36 40 -47 30 -14 37
-14 70 0 29 12 39 22 44 46 3 18 13 34 22 37 176 58 292 184 321 352 32 179
-66 366 -235 447 -38 19 -75 34 -82 34 -10 0 -13 54 -13 250 0 182 3 250 12
250 19 0 78 -50 108 -92 17 -23 34 -64 40 -96 6 -31 13 -67 16 -80 3 -13 19
-29 39 -39 28 -14 38 -14 65 -3 49 20 63 59 51 135 -19 124 -84 229 -183 295
-34 23 -81 46 -105 53 -35 9 -45 17 -54 44 -12 39 -43 63 -79 63 -14 0 -35 -7
-47 -15z m-43 -501 l0 -236 -42 25 c-86 49 -139 169 -117 265 5 25 19 61 30
79 24 38 97 103 116 103 10 0 13 -47 13 -236z m219 -458 c37 -19 87 -77 107
-124 27 -61 22 -150 -12 -213 -26 -48 -101 -119 -125 -119 -5 0 -9 98 -9 235
0 129 2 235 5 235 4 0 19 -7 34 -14z"/>
<path d="M4492 1164 c-146 -73 -184 -266 -77 -391 120 -140 350 -107 426 62
21 46 24 130 7 187 -16 52 -77 121 -133 147 -66 31 -155 29 -223 -5z m177
-170 c57 -73 -18 -171 -99 -129 -81 42 -52 155 39 155 31 0 44 -6 60 -26z"/>
</g>
</svg>
