<?xml version="1.0" standalone="no"?>
<!DOCTYPE svg PUBLIC "-//W3C//DTD SVG 20010904//EN"
 "http://www.w3.org/TR/2001/REC-SVG-20010904/DTD/svg10.dtd">
<svg version="1.0" xmlns="http://www.w3.org/2000/svg"
 width="512.000000pt" height="512.000000pt" viewBox="0 0 512.000000 512.000000"
 preserveAspectRatio="xMidYMid meet">

<g transform="translate(0.000000,512.000000) scale(0.100000,-0.100000)"
fill="#000000" stroke="none">
<path d="M2135 5085 c-185 -35 -338 -125 -449 -263 -66 -84 -97 -138 -129
-227 -49 -137 -51 -185 -26 -566 l23 -346 -21 -27 c-12 -15 -24 -39 -28 -54
-5 -24 -41 -45 -302 -177 -163 -82 -305 -159 -315 -169 -35 -38 -19 -97 33
-115 29 -10 49 -1 318 134 158 80 289 145 293 145 7 0 41 -120 35 -126 -11
-12 -1339 -684 -1351 -684 -23 0 -66 40 -66 61 0 11 5 29 10 39 6 10 125 78
265 150 244 125 285 153 285 192 0 28 -43 71 -73 71 -14 0 -106 -41 -204 -91
l-178 -90 -29 25 c-50 43 -119 9 -115 -57 3 -32 -3 -42 -38 -74 -79 -70 -94
-177 -39 -270 39 -67 102 -101 186 -100 l66 0 27 -65 c14 -36 25 -66 24 -66
-1 -1 -72 -31 -157 -66 -133 -55 -156 -68 -164 -92 -14 -38 3 -79 38 -96 26
-12 35 -11 90 12 43 18 63 22 68 13 3 -6 180 -432 393 -946 213 -514 394 -947
401 -962 l15 -28 -96 0 c-53 0 -105 -5 -116 -11 -48 -25 -44 -105 7 -128 18
-8 414 -11 1458 -11 l1433 0 27 21 c33 26 36 79 6 109 -19 19 -33 20 -235 20
l-215 0 0 58 c0 123 -51 215 -144 258 -46 21 -65 24 -187 24 -75 0 -138 2
-140 5 -3 2 30 291 72 642 66 552 80 646 102 698 39 94 50 160 45 281 -7 174
-49 272 -188 432 l-62 73 78 287 79 287 360 5 c399 6 400 6 502 76 66 45 110
103 173 225 28 55 53 99 55 99 3 0 5 -115 5 -255 l0 -255 -348 0 -349 0 -21
-23 c-44 -47 -20 -112 47 -126 l30 -6 -97 -222 c-91 -209 -99 -223 -129 -234
-70 -23 -88 -84 -57 -190 57 -196 266 -327 467 -292 177 30 313 165 347 342
13 71 -5 112 -64 140 -24 11 -46 28 -49 38 -3 10 -45 109 -95 221 l-90 202
204 0 204 0 0 -59 c0 -52 3 -62 26 -80 64 -50 124 -5 124 94 l0 45 195 0 c107
0 195 -3 195 -6 0 -3 -43 -104 -96 -224 -94 -214 -97 -218 -135 -233 -57 -22
-76 -67 -61 -143 36 -178 168 -306 346 -337 214 -36 425 105 476 321 21 90 1
139 -67 162 -27 10 -38 30 -121 219 -50 114 -94 215 -98 225 -5 12 0 16 19 16
66 0 103 84 57 130 -19 19 -33 20 -365 20 l-345 0 0 408 0 408 45 87 c50 98
58 157 29 225 -59 141 -252 177 -356 66 -14 -16 -99 -170 -188 -341 l-162
-313 -54 0 c-65 0 -94 -22 -94 -72 0 -58 30 -78 115 -78 64 0 111 17 141 51
12 13 93 161 179 329 87 168 165 313 173 323 21 24 68 21 94 -5 l22 -22 -34
-7 c-50 -11 -60 -31 -60 -125 l0 -82 -119 -229 c-66 -125 -136 -248 -157 -272
-21 -24 -60 -54 -88 -67 -50 -23 -56 -24 -368 -24 -175 0 -318 3 -318 7 0 4 7
33 16 65 l17 58 62 0 c79 0 115 24 115 76 0 56 -27 74 -113 74 -114 0 -108
-25 -81 370 28 420 21 496 -61 661 -151 298 -485 465 -810 404z m315 -164
c219 -68 391 -273 419 -501 8 -59 -24 -667 -35 -679 -2 -2 -46 8 -98 23 l-93
28 32 54 c18 29 38 75 44 101 7 26 21 66 33 88 17 35 19 55 16 166 -2 104 -6
131 -21 146 -9 11 -24 40 -32 64 -36 104 -150 205 -258 229 -32 7 -116 11
-217 8 -154 -3 -169 -5 -221 -29 -96 -45 -168 -124 -200 -220 -7 -19 -20 -45
-31 -58 -15 -20 -18 -43 -18 -148 0 -104 3 -130 20 -163 11 -22 20 -48 20 -59
0 -11 18 -55 40 -97 22 -43 38 -79 36 -81 -2 -3 -45 -17 -95 -33 -80 -24 -91
-26 -91 -11 0 9 -9 149 -20 311 -21 300 -20 353 7 450 57 206 239 376 454 425
83 19 223 12 309 -14z m5 -440 c22 -10 55 -33 73 -52 l33 -34 -145 -3 c-80 -1
-212 -1 -292 0 l-147 3 27 31 c52 62 93 74 261 74 124 0 157 -4 190 -19z m165
-291 l0 -50 -350 0 -350 0 0 50 0 50 350 0 350 0 0 -50z m-50 -210 c0 -26 -42
-89 -85 -129 -67 -62 -124 -84 -215 -85 -115 0 -209 50 -269 143 -55 86 -71
81 269 81 201 0 300 -3 300 -10z m-450 -341 c76 -30 212 -31 295 -1 33 11 62
19 64 17 2 -2 0 -23 -3 -47 -27 -175 -229 -246 -352 -123 -42 43 -64 92 -64
148 0 15 1 27 3 27 1 0 27 -10 57 -21z m-207 -50 c14 -117 94 -227 206 -282
58 -28 75 -32 146 -31 113 1 183 30 256 105 60 61 91 124 104 212 5 29 12 47
19 44 6 -2 62 -21 124 -41 61 -21 112 -40 112 -43 0 -11 -221 -819 -230 -840
l-10 -23 -375 0 c-206 0 -375 2 -375 4 0 3 -52 195 -115 427 -64 232 -114 426
-113 431 3 7 210 83 239 87 3 1 9 -22 12 -50z m-230 -699 l67 -250 -115 -131
c-131 -149 -184 -243 -210 -371 -22 -114 -19 -163 25 -378 32 -156 44 -198 61
-212 26 -22 67 -23 97 -2 31 21 29 57 -14 259 -40 191 -41 262 -4 370 27 79
54 118 173 253 l100 112 407 0 407 0 52 -60 c124 -142 161 -231 161 -384 -1
-61 -7 -108 -19 -144 -10 -29 -197 -365 -416 -747 l-398 -696 -96 3 -96 3 -82
390 c-88 419 -90 425 -151 425 -34 0 -72 -37 -72 -69 0 -14 34 -185 75 -380
41 -195 75 -359 75 -363 0 -5 -52 -7 -117 -6 l-116 3 -373 900 c-205 495 -374
905 -374 910 0 6 27 22 60 37 44 19 63 34 71 55 13 34 -3 70 -42 92 -23 13
-35 9 -164 -44 -193 -79 -177 -79 -206 -3 -13 34 -24 67 -24 71 0 8 1163 606
1180 607 6 0 40 -113 78 -250z m1911 -215 c36 -82 66 -153 66 -157 0 -4 -66
-8 -146 -8 -113 0 -145 3 -141 13 41 104 142 316 148 310 4 -4 37 -75 73 -158z
m1183 3 l71 -163 -74 -3 c-41 -2 -107 -2 -147 0 l-74 3 71 162 c39 90 73 163
76 163 3 0 37 -73 77 -162z m-1007 -334 c0 -25 -19 -56 -63 -102 -120 -124
-324 -102 -418 46 -16 25 -29 52 -29 59 0 10 52 13 255 13 225 0 255 -2 255
-16z m1184 -6 c-24 -79 -124 -161 -211 -174 -107 -16 -216 35 -270 126 -18 30
-33 58 -33 62 0 4 117 8 261 8 l260 0 -7 -22z m-4361 -80 c2 -7 179 -433 391
-946 l387 -934 -31 -94 -31 -93 -88 44 c-49 24 -91 50 -94 57 -2 7 -179 433
-392 947 -212 513 -385 934 -383 936 5 4 222 93 229 94 4 1 9 -5 12 -11z
m2128 -1259 c-28 -233 -53 -439 -56 -456 l-6 -33 -210 0 c-173 0 -210 2 -207
14 6 26 522 918 525 909 2 -6 -19 -201 -46 -434z m370 -649 c30 -17 49 -64 49
-125 l0 -55 -841 0 c-462 0 -838 3 -836 8 3 4 17 46 31 95 l27 87 775 0 c513
0 782 -3 795 -10z"/>
<path d="M3370 4718 c-16 -17 -20 -35 -20 -83 0 -75 22 -105 75 -105 53 0 75
30 75 105 0 48 -4 66 -20 83 -28 30 -82 30 -110 0z"/>
<path d="M3152 4500 c-30 -28 -30 -82 0 -110 17 -16 35 -20 83 -20 75 0 105
22 105 75 0 53 -30 75 -105 75 -48 0 -66 -4 -83 -20z"/>
<path d="M3532 4500 c-30 -28 -30 -82 0 -110 17 -16 35 -20 83 -20 75 0 105
22 105 75 0 53 -30 75 -105 75 -48 0 -66 -4 -83 -20z"/>
<path d="M3370 4338 c-16 -17 -20 -35 -20 -83 0 -75 22 -105 75 -105 53 0 75
30 75 105 0 48 -4 66 -20 83 -28 30 -82 30 -110 0z"/>
<path d="M1050 4208 c-16 -17 -20 -35 -20 -83 0 -75 22 -105 75 -105 53 0 75
30 75 105 0 48 -4 66 -20 83 -28 30 -82 30 -110 0z"/>
<path d="M832 3990 c-14 -14 -22 -33 -22 -55 0 -53 30 -75 105 -75 75 0 105
22 105 75 0 53 -30 75 -105 75 -48 0 -66 -4 -83 -20z"/>
<path d="M1212 3990 c-14 -14 -22 -33 -22 -55 0 -53 30 -75 105 -75 75 0 105
22 105 75 0 53 -30 75 -105 75 -48 0 -66 -4 -83 -20z"/>
<path d="M1050 3828 c-16 -17 -20 -35 -20 -83 0 -75 22 -105 75 -105 53 0 75
30 75 105 0 48 -4 66 -20 83 -28 30 -82 30 -110 0z"/>
</g>
</svg>
