<?xml version="1.0" standalone="no"?>
<!DOCTYPE svg PUBLIC "-//W3C//DTD SVG 20010904//EN"
 "http://www.w3.org/TR/2001/REC-SVG-20010904/DTD/svg10.dtd">
<svg version="1.0" xmlns="http://www.w3.org/2000/svg"
 width="512.000000pt" height="512.000000pt" viewBox="0 0 512.000000 512.000000"
 preserveAspectRatio="xMidYMid meet">

<g transform="translate(0.000000,512.000000) scale(0.100000,-0.100000)"
fill="#000000" stroke="none">
<path d="M975 4841 c-71 -32 -105 -93 -105 -186 l0 -55 -189 0 c-208 0 -244
-7 -311 -60 -22 -18 -51 -55 -67 -88 l-28 -57 -5 -1340 -5 -1340 -37 -91
c-144 -355 -51 -782 231 -1065 130 -130 285 -217 469 -266 79 -21 121 -25 232
-26 183 -1 305 26 463 104 105 52 157 89 248 176 109 104 210 257 248 376 l13
37 202 0 203 0 -10 -38 c-13 -48 -3 -99 26 -134 15 -19 118 -74 316 -168 324
-154 346 -161 412 -116 25 17 45 46 73 105 53 112 50 174 -9 226 l-22 20 28
63 28 63 40 -20 c62 -32 110 -35 155 -12 l40 21 245 -132 c135 -72 368 -194
518 -270 265 -135 273 -138 335 -138 73 0 128 22 174 68 87 86 96 221 22 323
-31 43 -134 97 -423 223 l-150 65 5 48 c3 26 5 766 5 1643 l0 1595 -29 59
c-30 60 -84 109 -149 133 -20 7 -104 12 -224 12 l-193 1 0 58 c-1 141 -73 202
-237 202 -162 -1 -233 -63 -233 -205 l0 -55 -370 0 -370 0 0 65 c0 76 -14 109
-64 153 -42 36 -93 46 -205 40 -133 -8 -191 -66 -191 -192 l0 -66 -370 0 -370
0 0 58 c-1 94 -37 155 -113 187 -53 22 -200 20 -252 -4z m230 -116 c25 -24 25
-27 25 -195 0 -212 1 -210 -125 -210 -127 0 -125 -3 -125 212 0 163 1 173 22
195 19 20 31 23 100 23 70 0 82 -3 103 -25z m1203 9 c21 -15 22 -20 22 -196 0
-224 3 -218 -118 -218 -126 0 -122 -7 -122 216 0 219 -3 214 120 214 52 0 82
-5 98 -16z m1206 -5 l26 -20 0 -175 c0 -217 2 -214 -125 -214 -127 0 -125 -3
-125 214 l0 175 26 20 c21 17 41 21 99 21 58 0 78 -4 99 -21z m-2744 -309 c0
-39 6 -85 14 -103 16 -39 61 -82 99 -96 37 -14 207 -14 244 0 72 27 112 100
113 202 l0 67 369 0 369 0 4 -87 c4 -102 23 -140 88 -173 56 -29 224 -29 280
0 65 33 84 71 88 173 l4 87 369 0 369 0 0 -62 c0 -85 14 -128 52 -165 46 -44
76 -53 183 -53 107 0 137 9 183 53 38 37 52 80 52 165 l0 63 194 -3 c217 -3
228 -7 271 -79 19 -32 20 -55 23 -371 l3 -338 -1931 0 -1930 0 0 323 c1 337 5
372 47 419 36 41 69 47 261 48 l182 0 0 -70z m3365 -2037 c0 -811 -3 -1205
-10 -1212 -7 -7 -76 17 -220 78 l-208 89 -12 46 c-14 54 -36 81 -87 107 -20
10 -38 27 -40 36 -2 10 9 45 24 78 l28 60 54 0 c73 0 101 22 153 121 49 91 55
148 23 201 -25 42 -24 41 -343 193 -298 142 -325 150 -390 113 -23 -13 -44
-42 -75 -103 -39 -75 -43 -91 -40 -138 4 -43 11 -59 37 -86 l33 -34 -31 -60
c-17 -33 -39 -63 -49 -66 -39 -13 -74 -67 -167 -261 -88 -185 -95 -204 -94
-256 2 -41 -4 -70 -24 -112 -25 -55 -26 -56 -60 -50 -42 6 -98 -11 -122 -37
-17 -19 -32 -20 -238 -20 -205 0 -219 1 -212 18 4 9 10 83 13 165 l4 147 205
0 c203 0 204 0 228 25 l25 24 0 291 0 291 -25 24 -24 25 -286 0 c-350 0 -345
2 -345 -106 l0 -60 -89 85 c-192 186 -429 281 -698 281 -278 0 -524 -101 -717
-294 l-76 -76 0 833 c0 459 3 837 7 840 3 4 871 6 1927 5 l1921 -3 0 -1202z
m-557 -363 c142 -69 172 -87 172 -104 -1 -28 -51 -128 -70 -139 -10 -6 -99 32
-295 126 -218 105 -281 139 -283 155 -4 24 52 138 70 144 13 5 74 -23 406
-182z m-2263 121 c149 -45 266 -113 379 -220 223 -214 318 -514 260 -822 -64
-339 -332 -620 -666 -699 -179 -42 -333 -35 -503 21 -232 77 -435 261 -535
484 -57 127 -74 214 -74 370 1 163 20 249 84 383 71 148 167 263 292 349 115
79 202 118 338 149 87 20 337 12 425 -15z m1110 -401 l0 -225 -183 -3 c-141
-2 -183 0 -187 10 -2 7 -21 56 -41 108 -33 84 -38 107 -41 204 -3 59 -2 115 1
122 5 12 44 14 228 12 l223 -3 0 -225z m1003 21 c45 -23 82 -44 82 -47 0 -2
-9 -22 -20 -44 l-20 -39 -167 80 c-93 44 -172 84 -176 88 -5 5 1 27 12 49 l21
41 92 -43 c51 -24 130 -62 176 -85z m-179 -145 c106 -51 198 -101 203 -109 11
-21 -167 -403 -195 -419 -14 -7 -36 -1 -94 26 -89 43 -117 45 -138 12 -24 -36
-6 -60 68 -97 34 -17 64 -33 66 -35 8 -7 -32 -84 -44 -84 -15 0 -345 159 -345
166 0 9 40 84 45 84 2 0 25 -10 50 -22 48 -23 67 -20 88 14 20 31 0 62 -60 93
-39 20 -59 37 -61 51 -3 19 154 367 181 402 5 6 17 12 26 12 9 -1 103 -43 210
-94z m324 -247 c8 -12 -8 -53 -66 -173 -42 -86 -82 -156 -89 -156 -7 0 -19 4
-27 9 -12 8 0 40 64 176 79 165 93 183 118 144z m532 -324 c458 -196 576 -252
607 -285 79 -86 19 -220 -99 -220 -37 0 -84 20 -286 124 -245 126 -746 391
-755 400 -3 3 14 44 36 91 l41 85 73 -31 c40 -17 213 -91 383 -164z m-1208
-157 c151 -72 278 -138 282 -147 13 -24 -48 -145 -74 -149 -24 -3 -556 251
-570 272 -15 24 51 156 78 156 5 0 133 -59 284 -132z"/>
<path d="M820 3020 c-19 -19 -20 -33 -20 -319 0 -323 0 -323 53 -336 12 -3
148 -5 303 -3 220 2 285 6 297 17 15 12 17 47 17 321 0 285 -1 308 -18 323
-16 15 -53 17 -315 17 -284 0 -298 -1 -317 -20z m540 -320 l0 -230 -222 2
-223 3 -3 228 -2 227 225 0 225 0 0 -230z"/>
<path d="M1980 3020 c-19 -19 -20 -33 -20 -315 l0 -296 25 -25 25 -25 296 3
296 3 19 24 c18 22 19 43 19 308 0 280 -4 315 -34 335 -6 4 -145 8 -308 8
-285 0 -299 -1 -318 -20z m545 -320 l0 -225 -225 0 -225 0 -3 228 -2 227 227
-2 228 -3 0 -225z"/>
<path d="M3144 3026 c-18 -14 -19 -31 -22 -315 l-3 -301 25 -25 25 -25 291 0
291 0 24 25 25 24 0 296 c0 282 -1 296 -20 315 -19 19 -33 20 -318 20 -242 0
-302 -3 -318 -14z m544 -323 l-3 -228 -225 0 -225 0 -3 215 c-1 118 0 220 2
227 4 10 57 13 231 13 l225 0 -2 -227z"/>
<path d="M990 2020 c-277 -69 -490 -279 -566 -560 -27 -99 -25 -282 4 -383 89
-313 339 -528 660 -567 331 -41 662 154 792 466 184 444 -80 950 -548 1049
-93 20 -250 18 -342 -5z m383 -119 c171 -60 312 -182 386 -332 188 -381 -16
-826 -429 -935 -86 -23 -235 -23 -320 0 -121 32 -207 82 -300 176 -92 92 -134
160 -169 272 -108 354 102 731 461 828 98 27 284 22 371 -9z"/>
<path d="M1137 1792 c-15 -16 -17 -51 -17 -284 l0 -266 176 -112 c179 -115
215 -129 241 -94 33 45 20 59 -169 178 l-137 87 -3 240 c-3 225 -4 242 -22
255 -27 19 -50 18 -69 -4z"/>
</g>
</svg>
